<svg width="512" height="512" viewBox="0 0 512 512" fill="none" xmlns="http://www.w3.org/2000/svg">
<g clip-path="url(#clip0_575_419)">
<path d="M467 132H512V31.359C512 25.289 508.35 19.819 502.74 17.499C499.999 16.3642 496.983 16.0672 494.073 16.6457C491.163 17.2241 488.489 18.652 486.39 20.749L20.7513 486.39C18.6543 488.489 17.2264 491.162 16.6479 494.072C16.0695 496.982 16.3664 499.999 17.5013 502.74C18.6356 505.482 20.5581 507.826 23.0255 509.474C25.4928 511.123 28.3939 512.002 31.3613 512H132.001V472C132.001 463.72 138.721 457 147.001 457C155.281 457 162.001 463.72 162.001 472V512H202.001V472C202.001 463.72 208.721 457 217.001 457C225.281 457 232.001 463.72 232.001 472V512H272.001V472C272.001 463.72 278.721 457 287.001 457C295.281 457 302.001 463.72 302.001 472V512H342.001V472C342.001 463.72 348.721 457 357.001 457C365.281 457 372.001 463.72 372.001 472V512H412.001V472C412.001 463.72 418.721 457 427.001 457C435.281 457 442.001 463.72 442.001 472V512H497.001C505.281 512 512.001 505.28 512.001 497V442H472.001C463.721 442 457.001 435.28 457.001 427C457.001 418.72 463.721 412 472.001 412H512.001V372H472.001C463.721 372 457.001 365.28 457.001 357C457.001 348.72 463.721 342 472.001 342H512.001V302H472.001C463.721 302 457.001 295.28 457.001 287C457.001 278.72 463.721 272 472.001 272H512.001V232H472.001C463.721 232 457.001 225.28 457.001 217C457.001 208.72 463.721 202 472.001 202H512.001V162H467.001C458.721 162 452.001 155.28 452.001 147C452.001 138.72 458.72 132 467 132ZM422 407C422 415.28 415.28 422 407 422H248.64C245.673 422.002 242.772 421.123 240.304 419.474C237.837 417.826 235.915 415.482 234.78 412.74C233.645 409.999 233.348 406.982 233.927 404.072C234.505 401.162 235.933 398.489 238.03 396.39L396.39 238.03C398.489 235.933 401.163 234.505 404.073 233.927C406.983 233.348 409.999 233.645 412.74 234.78C415.482 235.914 417.826 237.837 419.474 240.304C421.123 242.772 422.002 245.673 422 248.64V407ZM46.2913 290.42L109.931 354.06L68.0313 395.95C62.1613 401.82 52.6613 401.79 46.8213 395.95L4.39127 353.52C-1.48873 347.64 -1.43873 338.14 4.39127 332.31L46.2913 290.42ZM348.54 111.32C349.94 111.32 351.36 111.28 352.79 111.2L131.141 332.85L67.5013 269.21L286.23 50.48C286.56 67.47 292.62 82.51 303.82 93.72C315.36 105.249 330.94 111.32 348.54 111.32ZM398.9 21.429L373.26 75.469C354.93 83.829 335.92 83.389 325.03 72.499C315.16 62.629 313.88 46.079 319.96 29.409L378.91 1.44903C381.707 0.122011 384.846 -0.307782 387.896 0.218542C390.947 0.744867 393.76 2.20156 395.95 4.38903C398.137 6.57998 399.593 9.39246 400.121 12.4423C400.649 15.4921 400.223 18.6306 398.9 21.429Z" fill="#ffffff"/>
</g>
<defs>
<clipPath id="clip0_575_419">
<rect width="512.001" height="512" fill="white"/>
</clipPath>
</defs>
</svg>
