<svg xmlns="http://www.w3.org/2000/svg" xmlns:xlink="http://www.w3.org/1999/xlink" preserveAspectRatio="xMidYMid" width="36" height="36" viewBox="0 0 24 24">
  <path d="M12.000,24.000 C5.383,24.000 0.000,18.617 0.000,12.000 C0.000,5.384 5.383,0.000 12.000,0.000 C18.617,0.000 24.000,5.384 24.000,12.000 C24.000,18.617 18.617,24.000 12.000,24.000 ZM12.000,2.000 C6.486,2.000 2.000,6.486 2.000,12.000 C2.000,17.514 6.486,22.000 12.000,22.000 C17.514,22.000 22.000,17.514 22.000,12.000 C22.000,6.486 17.514,2.000 12.000,2.000 ZM16.000,15.000 C15.744,15.000 15.488,14.902 15.293,14.707 L12.000,11.414 L8.707,14.707 C8.316,15.098 7.684,15.098 7.293,14.707 C6.902,14.317 6.902,13.683 7.293,13.293 L11.293,9.293 C11.684,8.902 12.316,8.902 12.707,9.293 L16.707,13.293 C17.098,13.683 17.098,14.317 16.707,14.707 C16.512,14.902 16.256,15.000 16.000,15.000 Z" class="cls-1"/>
</svg>
