<svg xmlns="http://www.w3.org/2000/svg" width="50" height="50" viewBox="0 0 50 50" fill="#ffffff">
    <path d="M49.4377 17.3372L35.9195 3.81894C35.6331 3.53272 35.1689 3.53272 34.8826 3.81894C34.5963 4.10536 34.5963 4.56949 34.8826 4.85581L48.401 18.3741C48.4844 18.4575 48.5301 18.568 48.53 18.6857C48.53 18.8028 48.4843 18.9128 48.4009 18.9961L46.7108 20.6862C46.5392 20.8577 46.2603 20.8577 46.0888 20.6862L29.3078 3.90535C29.225 3.82266 29.1793 3.71268 29.1793 3.59558C29.1792 3.47798 29.2251 3.36732 29.3084 3.28394L30.9986 1.59379C31.1699 1.42253 31.449 1.42253 31.6205 1.59379L32.4631 2.43642C32.7495 2.72264 33.2137 2.72264 33.5 2.43642C33.7863 2.15 33.7863 1.68587 33.5 1.39955L32.6568 0.556435C31.9132 -0.185706 30.7041 -0.185413 29.9616 0.556923L28.2716 2.24707C27.9111 2.60759 27.7126 3.08667 27.7129 3.59636C27.7132 4.06098 27.8802 4.49901 28.1826 4.84505L27.3437 5.68358C26.9969 5.38103 26.5586 5.21427 26.0939 5.21427C25.5847 5.21427 25.1061 5.41251 24.7462 5.77253L23.056 7.46259C22.6959 7.82271 22.4977 8.3014 22.4977 8.8105C22.4977 9.27522 22.6645 9.71335 22.9668 10.0602L17.7749 15.2522C17.3778 15.6493 17.159 16.1771 17.159 16.7384C17.159 17.2998 17.3777 17.8276 17.7748 18.2246L19.4463 19.8962C20.0811 20.531 21.0495 20.6925 21.8556 20.2984L23.2804 19.6021C23.5235 19.4833 23.8159 19.5317 24.0075 19.7232L24.2143 19.93L14.8461 29.2973C13.6922 30.4513 12.1033 31.0254 10.4861 30.8728C7.62887 30.6026 4.82698 31.6114 2.79978 33.6397C1.04687 35.3936 0.0546788 37.7344 0.00580232 40.2311C-0.0431719 42.729 0.858013 45.1061 2.54318 46.9245C4.33489 48.857 6.76914 49.9486 9.39762 49.9981C9.46018 49.9994 9.52245 50 9.58491 50C12.1438 50 14.5425 49.0073 16.3568 47.1927C18.3967 45.153 19.4028 42.3353 19.1174 39.4616C18.9784 38.0668 19.4313 36.6296 20.36 35.5187C20.6197 35.208 20.5783 34.7457 20.2677 34.486C19.957 34.2264 19.4946 34.2676 19.235 34.5783C18.0553 35.9897 17.4806 37.8226 17.6584 39.6068C17.9003 42.041 17.048 44.4281 15.3201 46.1558C13.7457 47.7302 11.6533 48.5765 9.42528 48.5321C7.19896 48.4901 5.13666 47.5651 3.61856 45.9276C0.693201 42.7712 0.79115 37.7238 3.83684 34.6761C5.55387 32.9583 7.92683 32.1049 10.3482 32.3325C12.4013 32.5266 14.4189 31.7979 15.8827 30.3341L25.251 20.9668L29.0286 24.7443L21.6808 32.093C21.3945 32.3793 21.3945 32.8436 21.6809 33.1298C21.824 33.2729 22.0117 33.3445 22.1993 33.3445C22.3868 33.3445 22.5745 33.2729 22.7177 33.1297L30.0654 25.7811L30.2714 25.9871C30.463 26.1786 30.5116 26.4713 30.3922 26.7154L29.6961 28.1389C29.3021 28.9452 29.4637 29.9134 30.0984 30.5482L31.77 32.2198C32.1797 32.6295 32.718 32.8344 33.2561 32.8344C33.7943 32.8344 34.3326 32.6295 34.7423 32.2198L39.9343 27.0278C40.2812 27.3304 40.7194 27.4972 41.1841 27.4972C41.6933 27.4972 42.172 27.2989 42.532 26.9389L44.2221 25.2487C44.9337 24.5371 44.962 23.3993 44.311 22.6513L45.1504 21.8123C45.5077 22.1231 45.9529 22.2804 46.3994 22.2804C46.8874 22.2804 47.3756 22.0945 47.7473 21.7231L49.4368 20.0335C49.7972 19.674 49.9957 19.1956 49.996 18.6865C49.9966 18.1768 49.7983 17.6977 49.4377 17.3372ZM28.3852 6.71585L29.2151 5.88632L44.109 20.7804L43.2792 21.6097L28.3852 6.71585ZM33.7057 31.1829C33.458 31.4307 33.0547 31.4306 32.807 31.1829L31.1354 29.5115C30.9435 29.3194 30.8946 29.0266 31.0136 28.7829L31.7097 27.3595C32.1041 26.5528 31.9429 25.5846 31.3086 24.9502L25.0446 18.6862C24.4099 18.0517 23.4419 17.8905 22.6362 18.285L21.2119 18.981C20.9682 19.1002 20.6753 19.0513 20.4834 18.8592L18.8117 17.1876C18.6916 17.0675 18.6255 16.908 18.6255 16.7383C18.6255 16.5688 18.6917 16.4091 18.8118 16.289L23.9993 11.1015L38.893 25.9955L33.7057 31.1829ZM43.1855 24.2118L41.4953 25.902C41.4122 25.9851 41.3019 26.0308 41.1843 26.0308C41.0667 26.0308 40.9563 25.985 40.8732 25.9019L24.0928 9.12146C24.0097 9.03836 23.9641 8.928 23.9641 8.8104C23.9641 8.69281 24.0098 8.58245 24.0928 8.49936L25.7831 6.80921C25.8662 6.72612 25.9765 6.68046 26.094 6.68046C26.2115 6.68046 26.322 6.72621 26.4051 6.8093L43.1855 23.5898C43.357 23.7612 43.357 24.0403 43.1855 24.2118Z" fill="#ffffff"></path>
    <path d="M12.983 37.0115C12.0739 36.1023 10.8652 35.6016 9.57954 35.6016C8.29389 35.6016 7.08508 36.1023 6.17598 37.0114C4.29941 38.888 4.29941 41.9417 6.17598 43.8184C7.08518 44.7275 8.29389 45.2282 9.57954 45.2282C10.8652 45.2282 12.074 44.7275 12.983 43.8183V43.8184C14.8596 41.9416 14.8596 38.888 12.983 37.0115ZM11.9461 42.7814C11.314 43.4137 10.4736 43.7618 9.57954 43.7618C8.68549 43.7618 7.84501 43.4136 7.21284 42.7814C6.58068 42.1493 6.23258 41.3089 6.23258 40.4148C6.23258 39.5208 6.58077 38.6804 7.21284 38.0482C7.84501 37.416 8.68549 37.0679 9.57954 37.0679C10.4736 37.0679 11.314 37.4161 11.9461 38.0482C12.5783 38.6804 12.9264 39.5208 12.9264 40.4148C12.9264 41.3089 12.5783 42.1493 11.9461 42.7814Z" fill="#ffffff"></path>
    <path d="M34.0119 23.3405L26.6549 15.9835C26.3685 15.6972 25.9044 15.6972 25.6181 15.9835C25.3317 16.2699 25.3317 16.734 25.6181 17.0203L32.975 24.3773C33.1183 24.5204 33.3059 24.592 33.4935 24.592C33.6811 24.592 33.8688 24.5204 34.012 24.3773C34.2981 24.091 34.2981 23.6269 34.0119 23.3405Z" fill="#ffffff"></path>
</svg>