<svg xmlns="http://www.w3.org/2000/svg" width="50" height="50" viewBox="0 0 50 50" fill="none">
    <path d="M45.5279 46.6666V29.2492L45.871 27.534C46.7394 23.1859 47.1825 18.7636 47.1939 14.3297L49.778 7.8695C50.0415 7.20349 50.0694 6.4674 49.8569 5.78339C49.6445 5.09939 49.2045 4.5086 48.61 4.1091L48.5507 4.06962C46.67 2.81103 44.4579 2.13916 42.1949 2.13916C39.9318 2.13916 37.7198 2.81103 35.839 4.06962L35.7798 4.1091C35.1853 4.50858 34.7453 5.09936 34.5329 5.78338C34.3204 6.46739 34.3483 7.2035 34.6118 7.8695L37.1959 14.3298C37.2073 18.7637 37.6503 23.186 38.5188 27.534L38.8618 29.2493V46.6666C38.8618 47.5507 39.213 48.3985 39.8381 49.0237C40.4632 49.6488 41.3111 50 42.1951 50C43.0792 50 43.927 49.6488 44.5522 49.0237C45.1773 48.3985 45.5285 47.5507 45.5285 46.6666H45.5279ZM38.5921 13.3334L36.1589 7.25013C36.0359 6.9393 36.0229 6.59576 36.122 6.27652C36.2212 5.95729 36.4265 5.68156 36.704 5.49513L36.7632 5.45565C38.3704 4.38017 40.2607 3.80605 42.1946 3.80605C44.1284 3.80605 46.0187 4.38017 47.6259 5.45565L47.6852 5.49513C47.9627 5.68155 48.1681 5.95725 48.2673 6.27648C48.3665 6.59571 48.3536 6.93927 48.2306 7.25013L45.7971 13.3334H44.0444L44.6784 10.1636C44.7005 10.056 44.7012 9.94508 44.6803 9.83725C44.6595 9.72942 44.6175 9.62677 44.5568 9.53521C44.4962 9.44365 44.418 9.36499 44.3268 9.30374C44.2357 9.2425 44.1333 9.19988 44.0256 9.17834C43.9179 9.15679 43.807 9.15676 43.6993 9.17822C43.5916 9.19969 43.4892 9.24223 43.3979 9.30342C43.3067 9.3646 43.2285 9.44321 43.1678 9.53472C43.1071 9.62624 43.065 9.72886 43.0441 9.83668L42.3452 13.3334H42.0449L41.3452 9.83668C41.3243 9.72886 41.2823 9.62624 41.2215 9.53472C41.1608 9.44321 41.0826 9.3646 40.9914 9.30342C40.9002 9.24223 40.7978 9.19969 40.6901 9.17822C40.5823 9.15676 40.4714 9.15679 40.3637 9.17834C40.256 9.19988 40.1537 9.2425 40.0625 9.30374C39.9713 9.36499 39.8932 9.44365 39.8325 9.53521C39.7718 9.62677 39.7299 9.72942 39.709 9.83725C39.6882 9.94508 39.6888 10.056 39.711 10.1636L40.3452 13.3334H38.5921ZM43.8613 46.6666C43.8613 47.1087 43.6857 47.5326 43.3731 47.8452C43.0606 48.1577 42.6366 48.3333 42.1946 48.3333C41.7526 48.3333 41.3287 48.1577 41.0161 47.8452C40.7035 47.5326 40.528 47.1087 40.528 46.6666V30H43.8613V46.6666ZM44.0119 28.3334H40.3777L40.1525 27.2071C39.3492 23.1863 38.9185 19.1 38.8661 15.0001H45.5223C45.5015 16.6676 45.4172 18.3343 45.2694 20.0001H43.0279C42.8069 20.0001 42.595 20.0879 42.4387 20.2442C42.2824 20.4004 42.1946 20.6124 42.1946 20.8334C42.1946 21.0544 42.2824 21.2664 42.4387 21.4227C42.595 21.5789 42.8069 21.6667 43.0279 21.6667H45.1019C44.891 23.5261 44.6026 25.3729 44.2366 27.2071L44.0119 28.3334Z" fill="#ffffff"></path>
    <path d="M33.2708 25.2114L31.6362 24.6668C31.3544 24.5728 31.0543 24.5472 30.7606 24.592C30.4669 24.6368 30.1881 24.7507 29.947 24.9244C29.706 25.0981 29.5098 25.3266 29.3744 25.591C29.239 25.8554 29.1683 26.1482 29.1683 26.4453V35.0001C28.9473 35.0001 28.7353 35.0879 28.579 35.2441C28.4228 35.4004 28.335 35.6124 28.335 35.8334V49.1667C28.335 49.3877 28.4228 49.5997 28.579 49.7559C28.7353 49.9122 28.9473 50 29.1683 50H35.8349C36.0559 50 36.2679 49.9122 36.4242 49.7559C36.5805 49.5997 36.6683 49.3877 36.6683 49.1667V35.8334C36.6683 35.6124 36.5805 35.4004 36.4242 35.2441C36.2679 35.0879 36.0559 35.0001 35.8349 35.0001V28.769C35.8356 27.9818 35.5883 27.2144 35.128 26.5757C34.6677 25.9371 34.0178 25.4597 33.2708 25.2114ZM30.835 26.4453C30.8349 26.4123 30.8427 26.3797 30.8577 26.3503C30.8728 26.3208 30.8946 26.2954 30.9214 26.2761C30.9482 26.2567 30.9792 26.2441 31.0118 26.2391C31.0445 26.2341 31.0779 26.2369 31.1092 26.2474L32.7437 26.7922C33.1588 26.9301 33.5199 27.1954 33.7756 27.5503C34.0313 27.9052 34.1687 28.3316 34.1683 28.769V35.0001H30.835V26.4453ZM35.0016 48.3334H30.0016V40H35.0016V48.3334ZM35.0016 38.3334H30.0016V36.6667H35.0016V38.3334Z" fill="#ffffff"></path>
    <path d="M0.00195312 42.5001V42.9167C0.00407603 44.7947 0.751033 46.5951 2.07895 47.9231C3.40687 49.251 5.2073 49.9979 7.08526 50.0001H19.5852C21.4632 49.9979 23.2636 49.251 24.5915 47.9231C25.9194 46.5951 26.6664 44.7947 26.6685 42.9167V42.5001C26.6685 42.2791 26.5807 42.0671 26.4244 41.9108C26.2682 41.7545 26.0562 41.6667 25.8352 41.6667H23.8769C24.72 39.8885 25.0997 37.9259 24.9804 35.9615C24.8612 33.997 24.2469 32.0947 23.1949 30.4315C22.1428 28.7683 20.6871 27.3983 18.9632 26.4489C17.2393 25.4996 15.3033 25.0017 13.3352 25.0017C11.3672 25.0017 9.43118 25.4996 7.70729 26.4489C5.98339 27.3983 4.52768 28.7683 3.4756 30.4315C2.42353 32.0947 1.80929 33.997 1.69005 35.9615C1.57081 37.9259 1.95044 39.8885 2.79361 41.6667H0.835283C0.61427 41.6667 0.40231 41.7545 0.24603 41.9108C0.0897501 42.0671 0.00195313 42.2791 0.00195312 42.5001ZM13.3352 26.6668C15.0905 26.667 16.8149 27.1291 18.335 28.0068C19.8551 28.8845 21.1175 30.1468 21.9952 31.667C22.8729 33.1871 23.335 34.9114 23.3352 36.6667C23.3354 38.422 22.8736 40.1465 21.9961 41.6667H20.0047C20.9333 40.4285 21.4987 38.956 21.6377 37.4145C21.7766 35.8729 21.4835 34.3231 20.7913 32.9388C20.099 31.5544 19.035 30.3901 17.7183 29.5764C16.4017 28.7627 14.8844 28.3317 13.3366 28.3317C11.7888 28.3317 10.2716 28.7627 8.95497 29.5764C7.63832 30.3901 6.57426 31.5544 5.88202 32.9388C5.18978 34.3231 4.8967 35.8729 5.03563 37.4145C5.17455 38.956 5.74 40.4285 6.6686 41.6667H4.67433C3.79692 40.1465 3.3351 38.422 3.33528 36.6667C3.33545 34.9114 3.79761 33.1871 4.67531 31.667C5.55302 30.1468 6.81535 28.8845 8.33547 28.0068C9.85558 27.1291 11.5799 26.667 13.3352 26.6668ZM14.5064 30.1052C15.1953 30.2275 15.8605 30.4582 16.4771 30.7889L8.36796 41.1097C7.96838 40.6631 7.63083 40.1647 7.36443 39.6279L14.5064 30.1052ZM6.74651 37.674C6.61117 36.7977 6.6523 35.9032 6.86747 35.043C7.08264 34.1829 7.46752 33.3744 7.9995 32.665C8.53148 31.9557 9.19985 31.3598 9.96533 30.9123C10.7308 30.4649 11.578 30.1749 12.4571 30.0594L6.74651 37.674ZM17.8375 31.7551C18.52 32.3812 19.0652 33.1421 19.4387 33.9897C19.4387 33.9897 13.4507 41.62 13.4265 41.6667H10.0498L17.8375 31.7551ZM10.8352 43.3334H15.8352C16.0562 43.3334 16.2682 43.4212 16.4245 43.5775C16.5808 43.7338 16.6686 43.9457 16.6686 44.1667C16.6686 44.3878 16.5808 44.5997 16.4245 44.756C16.2682 44.9123 16.0562 45.0001 15.8352 45.0001H10.8352C10.6142 45.0001 10.4023 44.9123 10.246 44.756C10.0897 44.5997 10.0019 44.3878 10.0019 44.1667C10.0019 43.9457 10.0897 43.7338 10.246 43.5775C10.4023 43.4212 10.6142 43.3334 10.8352 43.3334ZM15.5261 41.6667L19.9694 36.0116C19.9902 36.2273 20.0019 36.4456 20.0019 36.6668C20.0036 37.6131 19.8029 38.5488 19.4133 39.4112C19.0237 40.2736 18.454 41.0426 17.7427 41.6667H15.5261ZM8.47859 43.3334C8.34508 43.7105 8.30403 44.114 8.35887 44.5103C8.41372 44.9065 8.56286 45.2837 8.79377 45.6103C9.02468 45.9369 9.3306 46.2033 9.68585 46.3872C10.0411 46.571 10.4353 46.6669 10.8352 46.6667H15.8352C16.2352 46.6669 16.6293 46.571 16.9845 46.3873C17.3397 46.2035 17.6456 45.9372 17.8765 45.6107C18.1074 45.2841 18.2566 44.907 18.3115 44.5108C18.3664 44.1147 18.3255 43.7112 18.1921 43.3341L18.1955 43.3334H24.986C24.8794 44.6932 24.2644 45.963 23.2635 46.8896C22.2625 47.8163 20.9492 48.3318 19.5852 48.3334H7.08526C5.72125 48.3318 4.40793 47.8163 3.407 46.8896C2.40608 45.963 1.79104 44.6932 1.68445 43.3334H8.47859Z" fill="#ffffff"></path>
    <path d="M23.706 12.3602L25.0416 13.2505C25.6839 13.6793 26.2034 14.2679 26.549 14.9586L26.7564 15.3733C26.8256 15.5117 26.932 15.6281 27.0636 15.7095C27.1952 15.7908 27.3469 15.8339 27.5017 15.8339C27.6564 15.8339 27.8081 15.7908 27.9397 15.7095C28.0714 15.6281 28.1778 15.5117 28.247 15.3733L28.4544 14.9586C28.7999 14.2678 29.3194 13.679 29.9618 13.2502L31.2973 12.3599C31.4271 12.2734 31.53 12.1522 31.5943 12.01C31.6586 11.8679 31.6817 11.7105 31.661 11.5559C31.6403 11.4013 31.5766 11.2556 31.4771 11.1354C31.3777 11.0152 31.2465 10.9253 31.0985 10.876C30.4458 10.6567 29.8528 10.2892 29.3659 9.80232C28.8791 9.31544 28.5116 8.72242 28.2923 8.06973C28.237 7.90376 28.1309 7.7594 27.989 7.6571C27.8471 7.55481 27.6766 7.49976 27.5017 7.49976C27.3267 7.49976 27.1562 7.55481 27.0143 7.6571C26.8724 7.7594 26.7663 7.90376 26.711 8.06973C26.4917 8.72242 26.1243 9.31544 25.6374 9.80232C25.1505 10.2892 24.5575 10.6567 23.9048 10.876C23.7568 10.9253 23.6256 11.0152 23.5262 11.1354C23.4267 11.2556 23.363 11.4013 23.3423 11.5559C23.3216 11.7105 23.3447 11.8679 23.409 12.01C23.4733 12.1522 23.5762 12.2734 23.706 12.3599V12.3602ZM27.5017 10.1635C27.9498 10.8019 28.515 11.3495 29.1674 11.7771L29.0373 11.8639C28.4436 12.2599 27.9239 12.7569 27.5017 13.3323C27.0795 12.7568 26.5598 12.2597 25.966 11.8636L25.8359 11.7768C26.4882 11.3493 27.0535 10.8018 27.5017 10.1635Z" fill="#ffffff"></path>
    <path d="M21.9325 15.8762C21.2798 15.6569 20.6868 15.2894 20.1999 14.8026C19.713 14.3157 19.3456 13.7227 19.1263 13.07C19.071 12.904 18.9649 12.7596 18.823 12.6573C18.6811 12.5551 18.5106 12.5 18.3356 12.5C18.1607 12.5 17.9902 12.5551 17.8483 12.6573C17.7064 12.7596 17.6003 12.904 17.545 13.07C17.3257 13.7227 16.9582 14.3157 16.4714 14.8026C15.9845 15.2894 15.3915 15.6569 14.7388 15.8762C14.5908 15.9255 14.4596 16.0154 14.3602 16.1356C14.2607 16.2558 14.197 16.4015 14.1763 16.5562C14.1556 16.7108 14.1787 16.8681 14.243 17.0103C14.3073 17.1524 14.4102 17.2736 14.54 17.3602L15.8755 18.2505C16.5179 18.6792 17.0374 19.2679 17.3829 19.9585L17.5903 20.3733C17.6596 20.5117 17.7659 20.6281 17.8976 20.7094C18.0292 20.7908 18.1809 20.8338 18.3356 20.8338C18.4904 20.8338 18.6421 20.7908 18.7737 20.7094C18.9053 20.6281 19.0117 20.5117 19.081 20.3733L19.2883 19.9585C19.6339 19.2678 20.1534 18.679 20.7957 18.2502L22.1313 17.3599C22.2611 17.2733 22.364 17.1521 22.4283 17.01C22.4926 16.8678 22.5157 16.7105 22.495 16.5559C22.4743 16.4012 22.4106 16.2555 22.3111 16.1353C22.2117 16.0151 22.0805 15.9252 21.9325 15.8759V15.8762ZM19.8713 16.8638C19.2776 17.2599 18.7578 17.7569 18.3356 18.3322C17.9135 17.7567 17.3938 17.2596 16.8 16.8635L16.6699 16.7767C17.3222 16.3492 17.8875 15.8017 18.3356 15.1634C18.7838 15.8018 19.349 16.3494 20.0014 16.777L19.8713 16.8638Z" fill="#ffffff"></path>
    <path d="M24.1287 5.75016L25.4643 4.85985C25.594 4.77329 25.6968 4.65207 25.761 4.50998C25.8253 4.36788 25.8484 4.21061 25.8277 4.05604C25.807 3.90148 25.7433 3.75582 25.6439 3.63565C25.5445 3.51547 25.4134 3.42558 25.2655 3.37621C24.6128 3.15692 24.0198 2.78943 23.5329 2.30256C23.0461 1.81569 22.6786 1.22266 22.4593 0.569975C22.404 0.404009 22.2979 0.259648 22.156 0.157349C22.0141 0.0550499 21.8436 0 21.6687 0C21.4937 0 21.3232 0.0550499 21.1813 0.157349C21.0394 0.259648 20.9333 0.404009 20.878 0.569975C20.6587 1.22266 20.2912 1.81569 19.8044 2.30256C19.3175 2.78943 18.7245 3.15692 18.0718 3.37621C17.9238 3.42554 17.7926 3.51542 17.6932 3.63563C17.5937 3.75584 17.53 3.90154 17.5093 4.05617C17.4886 4.21079 17.5117 4.36812 17.576 4.51026C17.6403 4.6524 17.7432 4.77363 17.873 4.86017L19.2086 5.75016C19.8509 6.17897 20.3704 6.76775 20.7159 7.45849L20.9233 7.87328C20.9926 8.01168 21.0989 8.12807 21.2306 8.20942C21.3622 8.29076 21.5139 8.33385 21.6687 8.33385C21.8234 8.33385 21.9751 8.29076 22.1067 8.20942C22.2384 8.12807 22.3447 8.01168 22.414 7.87328L22.6214 7.45849C22.9669 6.76775 23.4864 6.17897 24.1287 5.75016ZM21.6687 5.83225C21.2465 5.25672 20.7268 4.75962 20.133 4.3635L20.0029 4.27673C20.6552 3.84918 21.2205 3.30172 21.6687 2.6634C22.1168 3.30183 22.682 3.8494 23.3344 4.27704L23.2043 4.36381C22.6106 4.75987 22.0909 5.25686 21.6687 5.83225Z" fill="#ffffff"></path>
</svg>