<?xml version="1.0" encoding="iso-8859-1"?>
<!-- Uploaded to: SVG Repo, www.svgrepo.com, Generator: SVG Repo Mixer Tools -->
<!DOCTYPE svg PUBLIC "-//W3C//DTD SVG 1.1//EN" "http://www.w3.org/Graphics/SVG/1.1/DTD/svg11.dtd">
<svg fill="#000000" height="800px" width="800px" version="1.1" id="Capa_1" xmlns="http://www.w3.org/2000/svg" xmlns:xlink="http://www.w3.org/1999/xlink" 
	 viewBox="0 0 259.473 259.473" xml:space="preserve">
<path d="M247.395,34.938H129.095c-6.659,0-12.077,5.418-12.077,12.077v25.103H81.654c-6.002,0-13.614,3.693-17.329,8.409
	l-23.693,30.074c-3.087,3.918-9.517,8.997-14.041,11.093l-16.588,7.684C4.393,131.975,0,138.852,0,145.034v43.994
	c0,6.492,5.281,11.773,11.773,11.773h5.243c3.989,13.694,16.644,23.733,31.609,23.733c14.965,0,27.62-10.039,31.609-23.733h80.422
	c3.989,13.694,16.645,23.733,31.609,23.733c14.965,0,27.62-10.039,31.609-23.733h23.823c6.492,0,11.773-5.281,11.773-11.773v-62.859
	V83.891V47.015C259.473,40.356,254.055,34.938,247.395,34.938z M48.626,207.963c-9.031,0-16.355-7.323-16.355-16.355
	c0-9.032,7.324-16.355,16.355-16.355c9.033,0,16.355,7.322,16.355,16.355C64.981,200.64,57.659,207.963,48.626,207.963z
	 M116.614,118.34c0,4.303-3.519,7.775-7.821,7.717l-49.354-0.662c-4.302-0.058-5.668-2.889-3.036-6.292l19.445-25.146
	c2.632-3.403,8.305-6.188,12.607-6.188h20.336c4.303,0,7.822,3.52,7.822,7.822V118.34z M192.267,207.963
	c-9.031,0-16.354-7.323-16.354-16.355c0-9.032,7.322-16.355,16.354-16.355c9.033,0,16.355,7.322,16.355,16.355
	C208.622,200.64,201.3,207.963,192.267,207.963z"/>
</svg>