<svg xmlns="http://www.w3.org/2000/svg" width="59" height="50" viewBox="0 0 59 50" fill="none">
<g clip-path="url(#clip0_164_679)">
    <path d="M30.2356 6.84934L30.2356 6.84942C30.0401 7.04505 29.7684 7.15776 29.4919 7.15776C29.2155 7.15776 28.9437 7.04505 28.7481 6.8494L28.7481 6.84934C28.5525 6.65393 28.4398 6.38215 28.4398 6.10569C28.4398 5.82926 28.5525 5.55755 28.7481 5.36186C28.9437 5.16618 29.2142 5.05361 29.4919 5.05361C29.7684 5.05361 30.0402 5.16623 30.2356 5.36184L30.2356 5.3619C30.4313 5.55745 30.544 5.82925 30.544 6.10569C30.544 6.38213 30.4313 6.65391 30.2356 6.84934Z" fill="#ffffff" stroke="#ffffff" stroke-width="0.2"></path>
    <path d="M42.2743 19.0681L42.2743 19.0681C42.8356 19.2185 43.1687 19.7954 43.0182 20.3565L43.0182 20.3565C42.8678 20.9179 42.2914 21.2513 41.7299 21.1004L41.7298 21.1004C39.9217 20.6163 38.0563 21.6929 37.5718 23.501L37.5718 23.501C37.4459 23.9709 37.0208 24.2811 36.5563 24.2811C36.4664 24.2811 36.3748 24.2694 36.2834 24.2449C35.7221 24.0944 35.389 23.5177 35.5395 22.9565L35.5395 22.9565C36.324 20.0278 39.3447 18.2831 42.2743 19.0681Z" fill="#ffffff" stroke="#ffffff" stroke-width="0.2"></path>
    <path d="M32.4253 22.1218L32.5219 22.1477L32.4253 22.1218C32.2994 22.5917 31.8743 22.9019 31.4098 22.9019C31.3199 22.9019 31.2283 22.8901 31.1368 22.8657C30.5756 22.7152 30.2426 22.1384 30.393 21.5773L30.393 21.5773C31.9382 15.8105 37.8873 12.3758 43.6536 13.9212C44.2149 14.0716 44.548 14.6485 44.3975 15.2096C44.2471 15.7708 43.6705 16.1041 43.1091 15.9535L43.1091 15.9535C38.4632 14.7086 33.6703 17.4755 32.4253 22.1218ZM30.2964 21.5514L30.2964 21.5514L30.2964 21.5514Z" fill="#ffffff" stroke="#ffffff" stroke-width="0.2"></path>
    <path d="M57.5255 37.1994L57.4796 37.2531L57.5149 37.3143L57.8156 37.8352L57.9022 37.7852L57.8156 37.8352C58.8795 39.6776 59.162 41.8236 58.6113 43.8785C58.0606 45.9336 56.743 47.6506 54.9006 48.7144C53.6733 49.423 52.3112 49.7849 50.9315 49.7849C50.2398 49.7849 49.5436 49.6939 48.8572 49.51C46.8021 48.9594 45.0851 47.6418 44.0213 45.7994L40.2308 39.234L40.2019 39.184H40.1442H34.3305H34.2305V39.284V45.9657V46.0657H34.3305H38.9386C39.5195 46.0657 39.9906 46.5368 39.9906 47.1178C39.9906 47.6987 39.5195 48.1698 38.9386 48.1698H20.0453C19.4644 48.1698 18.9933 47.6987 18.9933 47.1178C18.9933 46.5368 19.4644 46.0657 20.0453 46.0657H24.6534H24.7534V45.9657V39.284V39.184H24.6534H5.76014C2.63923 39.184 0.1 36.6447 0.1 33.5238V5.87513C0.1 2.75422 2.63923 0.21499 5.76014 0.21499H53.2237C56.3446 0.21499 58.8839 2.75422 58.8839 5.87513V33.5238C58.8839 34.8798 58.3956 36.1808 57.5255 37.1994ZM32.0264 46.0657H32.1264V45.9657V39.284V39.184H32.0264H26.9575H26.8575V39.284V45.9657V46.0657H26.9575H32.0264ZM56.2364 35.1L56.33 35.2622L56.4127 35.0942C56.6508 34.6107 56.7798 34.0747 56.7798 33.5238V5.87513C56.7798 3.91422 55.1846 2.31905 53.2237 2.31905H5.76014C3.79923 2.31905 2.20406 3.91422 2.20406 5.87513V33.5238C2.20406 35.4847 3.79923 37.0799 5.76014 37.0799H38.8139H38.9871L38.9005 36.9299L37.4372 34.3954L37.4084 34.3454H37.3506H6.22096C5.64003 34.3454 5.16893 33.8743 5.16893 33.2934V6.10554C5.16893 5.52462 5.64003 5.05351 6.22096 5.05351H24.3078C24.8887 5.05351 25.3598 5.52462 25.3598 6.10554C25.3598 6.68646 24.8887 7.15757 24.3078 7.15757H7.37298H7.27298V7.25757V32.1413V32.2413H7.37298H36.0203H36.1934L36.1069 32.0913L35.8562 31.657L35.7696 31.707L35.8562 31.657C35.5771 31.1735 35.5031 30.611 35.6475 30.072C35.792 29.5328 36.1374 29.0826 36.6208 28.8036L36.5708 28.717L36.6208 28.8036L46.7973 22.9282C47.2807 22.6491 47.8433 22.5752 48.3822 22.7196C48.9214 22.8641 49.3716 23.2094 49.6506 23.6929L49.7372 23.6429L49.6506 23.6929L51.5243 26.9381L51.7109 27.2613V26.8881V7.25757V7.15757H51.6109H34.6761C34.0951 7.15757 33.624 6.68646 33.624 6.10554C33.624 5.52462 34.0951 5.05351 34.6761 5.05351H52.7629C53.3438 5.05351 53.8149 5.52462 53.8149 6.10554V30.8789V30.9057L53.8283 30.9289L56.2364 35.1ZM37.7727 30.5682L37.6861 30.6182L37.7361 30.7048L45.8435 44.7473C46.626 46.1029 47.8901 47.0727 49.4018 47.4777C50.9137 47.8829 52.4933 47.6747 53.8486 46.8923C55.2041 46.1098 56.1739 44.8457 56.5789 43.334C56.9841 41.8222 56.7761 40.2426 55.9936 38.8872L47.8862 24.8447L47.8362 24.7581L47.7496 24.8081L37.7727 30.5682Z" fill="#ffffff" stroke="#ffffff" stroke-width="0.2"></path>
    <path d="M51.5522 42.8972L51.5522 42.8972C51.2626 43.0644 50.9247 43.1086 50.6021 43.0223L50.6021 43.0223C50.2793 42.9358 50.0091 42.7284 49.8419 42.4391L49.8419 42.439C49.4967 41.841 49.7022 41.0739 50.3001 40.7287C50.3001 40.7287 50.3001 40.7287 50.3001 40.7287L50.3501 40.8153C50.5277 40.7127 50.7248 40.6603 50.9243 40.6603C51.0243 40.6603 51.1251 40.6734 51.2243 40.7002L51.5522 42.8972ZM51.5522 42.8972C51.8415 42.73 52.0491 42.4598 52.1355 42.1369L51.5522 42.8972ZM49.248 38.9064L49.248 38.9064C50.0244 38.4581 50.9284 38.339 51.7947 38.571C52.6609 38.8032 53.3843 39.3584 53.8324 40.1349L53.8324 40.1349C54.2807 40.9113 54.3997 41.8154 54.1678 42.6815C53.9357 43.5475 53.3805 44.271 52.604 44.7193L52.6039 44.7193C52.0867 45.018 51.5129 45.1704 50.9317 45.1704C50.6404 45.1704 50.3469 45.132 50.0574 45.0546C49.1914 44.8224 48.4679 44.2673 48.0197 43.4908L47.9331 43.5408L48.0197 43.4908C47.0944 41.8883 47.6455 39.8317 49.248 38.9064ZM52.0103 41.1869C51.8431 40.8975 51.573 40.69 51.2502 40.6036L52.1355 42.1369C52.2196 41.8229 52.1799 41.4948 52.0237 41.2108V41.2101L52.0103 41.1869Z" fill="#ffffff" stroke="#ffffff" stroke-width="0.2"></path>
    <path d="M41.8654 31.2709L41.8654 31.2709C42.0607 31.0755 42.3324 30.9638 42.6091 30.9638C42.8859 30.9638 43.1574 31.0755 43.3528 31.2708C43.5486 31.4677 43.6612 31.7383 43.6612 32.0146C43.6612 32.2909 43.5485 32.5628 43.3528 32.7596C43.1573 32.9552 42.8856 33.0679 42.6091 33.0679C42.3327 33.0679 42.061 32.9551 41.8655 32.7596C41.6696 32.5628 41.557 32.2921 41.557 32.0146C41.557 31.7382 41.6698 31.4664 41.8654 31.2709Z" fill="#ffffff" stroke="#ffffff" stroke-width="0.2"></path>
    <path d="M47.343 28.9667L47.3431 28.9668C47.5387 29.1622 47.6514 29.4339 47.6514 29.7117C47.6514 29.9881 47.5386 30.2599 47.343 30.4554L47.343 30.4554C47.1478 30.6508 46.876 30.7625 46.5993 30.7625C46.3227 30.7625 46.051 30.6508 45.8556 30.4555C45.6597 30.2586 45.5473 29.988 45.5473 29.7117C45.5473 29.4341 45.6599 29.1635 45.8556 28.9666C46.0512 28.771 46.3229 28.6583 46.5993 28.6583C46.8758 28.6583 47.1476 28.7712 47.343 28.9667Z" fill="#ffffff" stroke="#ffffff" stroke-width="0.2"></path>
    <path d="M49.6477 34.4462L49.6477 34.4462C49.4523 34.6417 49.1805 34.7544 48.904 34.7544C48.6276 34.7544 48.3558 34.6416 48.1602 34.4462C47.9646 34.2506 47.852 33.9788 47.852 33.7024C47.852 33.4249 47.9646 33.1542 48.1602 32.9586L48.1604 32.9584C48.3557 32.762 48.6274 32.6503 48.904 32.6503C49.1807 32.6503 49.4523 32.762 49.6475 32.9584L49.6477 32.9586C49.8434 33.1542 49.9561 33.4248 49.9561 33.7024C49.9561 33.9788 49.8433 34.2506 49.6477 34.4462Z" fill="#ffffff" stroke="#ffffff" stroke-width="0.2"></path>
    <path d="M44.1691 35.2628L44.1691 35.2627C44.3646 35.0672 44.6364 34.9545 44.9128 34.9545C45.1894 34.9545 45.4611 35.0672 45.6566 35.2628L45.6566 35.2628C45.8523 35.4583 45.9649 35.7301 45.9649 36.0066C45.9649 36.283 45.8522 36.5548 45.6566 36.7504C45.4611 36.9459 45.1894 37.0586 44.9128 37.0586C44.6364 37.0586 44.3646 36.9458 44.1691 36.7504L44.1691 36.7504C43.9735 36.5548 43.8607 36.283 43.8607 36.0066C43.8607 35.7302 43.9735 35.4583 44.1691 35.2628Z" fill="#ffffff" stroke="#ffffff" stroke-width="0.2"></path>
</g>
<defs>
    <clipPath id="clip0_164_679">
        <rect width="58.9862" height="50" fill="white"></rect>
    </clipPath>
</defs>
</svg>