<svg xmlns="http://www.w3.org/2000/svg" width="51" height="50" viewBox="0 0 51 50" fill="none">
<g clip-path="url(#clip0_164_605)">
    <path d="M47.7548 39.6156C40.2128 32.0755 34.0978 21.3688 33.2861 19.9188V16.6443C33.2861 15.9923 33.4249 14.9337 33.6984 13.4979C33.7755 13.0943 33.5111 12.7048 33.1075 12.6285C32.7043 12.5515 32.3156 12.8158 32.2386 13.2194C32.0272 14.3234 31.8945 15.2092 31.835 15.9012H19.2724C19.0523 13.3728 17.9094 8.87028 17.6252 7.77623C17.8976 7.14108 18.3229 6.72375 18.9195 6.50174C20.8383 5.7903 24.0938 7.24904 25.1859 7.87159C25.4141 8.00129 25.6944 8.00129 25.9222 7.87159C27.0155 7.24904 30.2713 5.78915 32.1909 6.50174C32.7863 6.72375 33.2117 7.14184 33.4852 7.77623C33.3742 8.20042 33.1304 9.156 32.8649 10.2966C32.7719 10.6971 33.0206 11.0965 33.42 11.1896C33.8201 11.2827 34.2195 11.034 34.3126 10.6346C34.6666 9.11633 34.9798 7.93377 34.9836 7.92195C35.0214 7.77623 35.0153 7.62364 34.9649 7.48211C34.6407 6.57002 34.1097 5.88643 33.3822 5.43744C33.3139 4.4048 32.9332 1.91799 30.8996 0.178874C30.7321 0.0362045 30.5109 -0.0263565 30.2938 0.0102646C30.0779 0.0461227 29.8887 0.175822 29.7766 0.365031C29.7121 0.472987 28.2999 2.8835 28.0988 5.32719C27.9859 5.36419 27.8719 5.40081 27.7559 5.44125C26.7984 5.77122 25.9966 6.15498 25.5548 6.38272C25.1116 6.15498 24.3109 5.77122 23.3526 5.44125C23.2374 5.40081 23.1237 5.36419 23.0097 5.32719C22.8082 2.8835 21.3972 0.472987 21.3327 0.365031C21.2206 0.175822 21.0314 0.0461227 20.8143 0.0102646C20.5984 -0.0263565 20.3764 0.0362045 20.2097 0.178874C18.1753 1.91799 17.7946 4.40556 17.7271 5.43744C16.9996 5.88643 16.4686 6.57002 16.1443 7.48211C16.094 7.62364 16.0879 7.77623 16.1264 7.92195C16.1436 7.98527 17.8232 14.339 17.8232 16.6443V19.9188C17.0107 21.3688 10.8957 32.0755 3.35366 39.6156C3.20489 39.764 3.12669 39.9685 3.13775 40.1783C3.14767 40.3885 3.24647 40.5838 3.40898 40.7165C3.49061 40.7829 5.28733 42.2378 8.39631 43.8644C8.39517 43.8644 8.3944 43.8652 8.3944 43.8663C8.26852 44.0258 8.21283 44.2299 8.24182 44.4313C8.27043 44.6323 8.38029 44.8127 8.54509 44.9306C8.60231 44.9722 9.97483 45.9476 12.3487 47.0386C12.4498 47.0844 12.5547 47.1069 12.6589 47.1069C12.9404 47.1069 13.2097 46.9455 13.3348 46.6739C13.5061 46.3005 13.3428 45.8591 12.9701 45.6878C11.6548 45.0832 10.66 44.5125 10.0603 44.1436C16.1108 36.2053 20.8441 25.2926 20.8917 25.1804C21.0542 24.8039 20.8807 24.3667 20.5042 24.2042C20.1265 24.0417 19.6893 24.2153 19.5268 24.5929C19.4803 24.6998 15.0392 34.9346 9.31184 42.6639C7.28509 41.6195 5.7985 40.6265 5.00581 40.0573C12.1107 32.7316 17.8381 22.9091 19.0016 20.8545H32.1066C33.2712 22.9091 38.9986 32.7316 46.1035 40.0573C45.3127 40.6254 43.8291 41.6176 41.7974 42.6639C36.0689 34.9346 31.6278 24.6998 31.5813 24.5929C31.4199 24.2153 30.9816 24.0417 30.6051 24.2042C30.2274 24.3667 30.0543 24.8039 30.2168 25.1804C30.2652 25.2926 34.9985 36.2041 41.0482 44.1429C39.1432 45.3121 33.2247 48.5134 25.5548 48.5134C22.2563 48.5134 18.9283 47.9297 15.6637 46.7781C15.2761 46.6411 14.8519 46.8445 14.7154 47.232C14.5796 47.6185 14.7829 48.0434 15.1693 48.1804C18.5934 49.3873 22.088 50 25.5548 50C35.3624 50 42.2739 45.1378 42.5634 44.9306C42.729 44.8127 42.8381 44.6323 42.8667 44.4313C42.8953 44.2299 42.8411 44.0258 42.7152 43.8663C42.7141 43.8652 42.713 43.8644 42.713 43.8644C45.8212 42.2378 47.6179 40.7829 47.6991 40.7165C47.8617 40.5838 47.9608 40.3885 47.9719 40.1783C47.9818 39.9685 47.9032 39.764 47.7548 39.6156ZM30.6021 2.00421C31.3722 2.97772 31.6892 4.10038 31.8193 4.8843C31.1701 4.78627 30.4426 4.8061 29.643 4.94381C29.8204 3.82992 30.2591 2.73472 30.6021 2.00421ZM20.5072 2.00421C20.8502 2.73472 21.2881 3.82992 21.4666 4.94381C20.6667 4.8061 19.9392 4.78627 19.2899 4.8843C19.42 4.10038 19.7363 2.97772 20.5072 2.00421ZM31.7995 19.3679H19.3098V17.3877H31.7995V19.3679Z" fill="#ffffff"></path>
</g>
<defs>
    <clipPath id="clip0_164_605">
        <rect width="50" height="50" fill="white" transform="translate(0.5)"></rect>
    </clipPath>
</defs>
</svg>