<svg xmlns="http://www.w3.org/2000/svg" width="51" height="50" viewBox="0 0 51 50" fill="none">
    <g clip-path="url(#clip0_164_623)">
        <path d="M10.1191 31.8292L10.1191 31.829C10.691 29.4007 13.1308 27.8888 15.5592 28.4571L15.5593 28.4571C17.987 29.0267 19.4984 31.4671 18.9289 33.8977C18.9289 33.8977 18.9289 33.8977 18.9289 33.8977L18.8315 33.8749L10.1191 31.8292ZM10.1191 31.8292C9.55071 34.2594 11.0629 36.6993 13.4913 37.2685L10.1191 31.8292ZM8.41179 31.4284L8.41442 31.4172V31.4161C9.21233 28.0539 12.5945 25.9607 15.9595 26.7499C19.3286 27.5402 21.4266 30.9261 20.6366 34.2976L20.6366 34.2976C20.2539 35.9319 19.2576 37.3183 17.8309 38.2023C16.8258 38.825 15.6924 39.1452 14.5396 39.1452C14.0576 39.1452 13.5716 39.0893 13.0905 38.9758L13.0904 38.9758C9.72163 38.1862 7.62214 34.8003 8.41179 31.4284Z" fill="#ffffff" stroke="#ffffff" stroke-width="0.2"></path>
        <path d="M32.1732 13.4304H10.0101C9.52562 13.4304 9.1332 13.0377 9.1332 12.5535C9.1332 12.0689 9.52565 11.6762 10.0101 11.6762H32.1732C32.6577 11.6762 33.0501 12.0689 33.0501 12.5535C33.0501 13.0377 32.6573 13.4304 32.1732 13.4304Z" fill="#ffffff" stroke="#ffffff" stroke-width="0.2"></path>
        <path d="M27.887 18.526H10.0101C9.5256 18.526 9.1332 18.1336 9.1332 17.6491C9.1332 17.1649 9.52562 16.7721 10.0101 16.7721H27.887C28.3715 16.7721 28.7639 17.1649 28.7639 17.6491C28.7639 18.1336 28.3715 18.526 27.887 18.526Z" fill="#ffffff" stroke="#ffffff" stroke-width="0.2"></path>
        <path d="M13.269 34.922L13.269 34.9219L11.9987 33.7287L11.9987 33.7287C11.6456 33.3972 11.6282 32.8422 11.96 32.4892L11.96 32.4891C12.2914 32.1362 12.8465 32.119 13.1996 32.4505L13.7458 32.9635L13.8199 33.0331L13.8883 32.9579L15.8017 30.8526C16.1274 30.4944 16.6821 30.4677 17.0406 30.7937L17.0407 30.7937C17.3991 31.1193 17.4255 31.674 17.0995 32.0326L17.0995 32.0326L14.5181 34.8726L14.518 34.8727C14.3603 35.0465 14.1388 35.1496 13.9038 35.1589L13.9038 35.1589L13.9019 35.159C13.8923 35.1595 13.8823 35.1596 13.8692 35.1596C13.6466 35.1596 13.4316 35.075 13.269 34.922Z" fill="#ffffff" stroke="#ffffff" stroke-width="0.2"></path>
        <path d="M25.1064 23.622H10.0101C9.5256 23.622 9.1332 23.2296 9.1332 22.745C9.1332 22.2608 9.52562 21.8681 10.0101 21.8681H25.1064C25.5906 21.8681 25.9834 22.2608 25.9834 22.745C25.9834 23.2295 25.5906 23.622 25.1064 23.622Z" fill="#ffffff" stroke="#ffffff" stroke-width="0.2"></path>
        <path d="M30.5977 26.6775C30.5458 26.6869 30.494 26.6966 30.4427 26.7071L30.5977 26.6775ZM30.5977 26.6775C30.6046 26.6889 30.6116 26.7003 30.6186 26.7116L30.7036 26.659L30.6868 26.5604C30.6739 26.5626 30.661 26.5649 30.648 26.5671C30.1677 25.7574 29.8368 24.7661 29.6622 23.5954C29.6214 23.3223 29.6981 23.045 29.8732 22.8317C30.0483 22.6181 30.3054 22.4888 30.5812 22.4754C32.9618 22.3596 34.5565 23.166 35.5389 24.3599C35.5318 24.3762 35.5248 24.3924 35.5178 24.4086L35.6097 24.448L35.6883 24.3862C35.6773 24.3722 35.6662 24.3582 35.655 24.3443C35.8006 24.0178 35.9737 23.6889 36.1758 23.3654V6.54373C36.1758 5.14679 35.039 4.01039 33.6417 4.01039H29.2209H29.1209V4.11039V4.44527C29.1209 5.43137 28.3191 6.23322 27.3333 6.23322H13.5402C12.5544 6.23322 11.7526 5.43137 11.7526 4.44527V4.11039V4.01039H11.6526H7.23447C5.83676 4.01039 4.69998 5.14679 4.69998 6.54373V20.9213C4.69998 21.4607 4.26244 21.8983 3.72304 21.8983C3.18364 21.8983 2.74609 21.4607 2.74609 20.9213V6.54373C2.74609 4.06952 4.75949 2.0565 7.23447 2.0565H11.6526H11.7526V1.9565V1.78795C11.7526 0.802231 12.5544 0 13.5402 0H27.3333C28.3191 0 29.1209 0.802231 29.1209 1.78795V1.9565V2.0565H29.2209H33.6417C36.1167 2.0565 38.1301 4.06952 38.1301 6.54373V21.1874C38.1111 21.2002 38.0921 21.2132 38.0732 21.2263L38.1301 21.3085H38.2301V21.2407C39.7144 20.2525 41.6182 19.8088 43.9105 19.9207C44.1863 19.9341 44.4438 20.0638 44.6185 20.2774L30.5977 26.6775ZM26.4993 43.3625L26.4989 43.3615L26.4958 43.3549L26.4942 43.3516L26.4943 43.3516C26.467 43.2916 26.4404 43.232 26.4151 43.174L26.415 43.1739C25.4569 40.9776 25.1155 38.4689 25.3401 36.1568C25.5646 33.846 26.3556 31.7214 27.6735 30.3012C28.8485 29.0346 30.3806 28.3966 32.1875 28.3966C33.224 28.3966 34.3496 28.6064 35.5493 29.0262M26.4993 43.3625L35.5163 29.1206M26.4993 43.3625C27.3504 45.2208 29.2967 48.1461 33.1107 48.1461H38.5699C42.515 48.1461 44.4618 45.0167 45.2656 43.1743C46.2237 40.978 46.565 38.4691 46.3404 36.157C46.1159 33.8461 45.3249 31.7214 44.0071 30.3012C42.1535 28.3033 39.4201 27.8753 36.1314 29.0262M26.4993 43.3625L36.1644 29.1206M35.5493 29.0262L35.5163 29.1206M35.5493 29.0262C35.5493 29.0262 35.5492 29.0262 35.5492 29.0262L35.5163 29.1206M35.5493 29.0262C35.7354 29.0913 35.9452 29.0912 36.1314 29.0262M35.5163 29.1206C35.7238 29.1931 35.9568 29.1931 36.1644 29.1206M36.1314 29.0262C36.1314 29.0262 36.1314 29.0262 36.1313 29.0262L36.1644 29.1206M36.1314 29.0262L36.1644 29.1206M42.1194 26.8934L42.0053 27.0073L42.158 27.0589C43.3494 27.4616 44.4009 28.1472 45.2929 29.1082C46.8359 30.771 47.8312 33.2379 48.0876 36.0587C48.3314 38.7455 47.8996 41.5221 46.8729 43.8756C45.1988 47.7129 42.1709 49.9 38.5699 49.9H33.1107C29.7527 49.9 26.8945 47.9981 25.1663 44.6313L25.1384 44.577H25.0773H7.23447C4.81475 44.577 2.84609 42.6076 2.84609 40.1871V28.7216C2.84609 28.2374 3.23887 27.8447 3.72304 27.8447C4.20721 27.8447 4.59998 28.2374 4.59998 28.7216V40.1871C4.59998 41.6407 5.78147 42.8231 7.23447 42.8231H24.2595H24.3984L24.3543 42.6913C23.6591 40.6172 23.3887 38.3068 23.5927 36.0587C23.849 33.2379 24.8444 30.771 26.3877 29.1082L26.3144 29.0401L26.3877 29.1082C27.5071 27.9017 28.8775 27.1274 30.4626 26.8051L30.4626 26.8051C30.5474 26.7878 30.6336 26.7724 30.7204 26.7576L30.8667 26.7327L30.7887 26.6065C30.2869 25.7942 29.9408 24.7858 29.7611 23.5807L29.7611 23.5806C29.7245 23.3355 29.7933 23.0866 29.9505 22.8952L29.9505 22.8951C30.1077 22.7034 30.3384 22.5873 30.586 22.5753C32.9965 22.4581 34.5777 23.2962 35.5311 24.5098L35.6352 24.6424L35.7016 24.4874C35.8542 24.1315 36.0399 23.7717 36.2606 23.4184L36.2758 23.3941V23.3654V6.54373C36.2758 5.09153 35.0942 3.91039 33.6417 3.91039H29.1209H29.0209V4.01039V4.44527C29.0209 5.37615 28.2638 6.13322 27.3333 6.13322H13.5402C12.6097 6.13322 11.8526 5.37615 11.8526 4.44527V4.01039V3.91039H11.7526H7.23447C5.78157 3.91039 4.59998 5.09152 4.59998 6.54373V20.9213C4.59998 21.4055 4.20721 21.7983 3.72304 21.7983C3.23887 21.7983 2.84609 21.4055 2.84609 20.9213V6.54373C2.84609 4.12477 4.8147 2.1565 7.23447 2.1565H11.7526H11.8526V2.0565V1.78795C11.8526 0.857432 12.6097 0.1 13.5402 0.1H27.3333C28.2638 0.1 29.0209 0.857432 29.0209 1.78795V2.0565V2.1565H29.1209H33.6417C36.0615 2.1565 38.0301 4.12477 38.0301 6.54373V21.3085V21.4992L38.1869 21.3908C39.6627 20.3708 41.5771 19.9069 43.9056 20.0206L43.9057 20.0206C44.1532 20.0326 44.3843 20.149 44.5411 20.3407L44.5412 20.3409C44.6983 20.5321 44.7668 20.7814 44.7302 21.0266C44.3447 23.5903 43.4662 25.5496 42.1194 26.8934ZM27.167 4.37971H27.267V4.27971V1.95389V1.85389H27.167H13.7065H13.6065V1.95389V4.27971V4.37971H13.7065H27.167ZM42.7818 21.8942L42.812 21.7648L42.6793 21.7717C40.9041 21.8638 39.4939 22.4103 38.4887 23.4121C37.4196 24.4772 36.9945 25.8532 36.8257 26.8436L36.8002 26.993L36.9476 26.9577C37.8239 26.7476 38.6665 26.6423 39.4721 26.6392L39.4955 26.6391L39.5164 26.6287C41.1623 25.8065 42.235 24.2433 42.7818 21.8942ZM33.9032 25.315C33.395 24.8064 32.7098 24.4933 31.8647 24.3738L31.7094 24.3518L31.755 24.5019C32.0576 25.4976 32.5382 26.2211 33.2138 26.6825L33.2344 26.6966L33.2593 26.6993C33.7117 26.7488 34.1743 26.8286 34.6472 26.9384L34.8157 26.9775L34.7655 26.8119C34.6167 26.3219 34.3574 25.7692 33.9032 25.315Z" fill="#ffffff" stroke="#ffffff" stroke-width="0.2"></path>
        <path d="M4.59998 24.8216C4.59998 25.3061 4.20723 25.6985 3.72304 25.6985C3.23887 25.6985 2.84609 25.3058 2.84609 24.8216V24.8021C2.84609 24.318 3.23887 23.9252 3.72304 23.9252C4.20721 23.9252 4.59998 24.318 4.59998 24.8021V24.8216Z" fill="#ffffff" stroke="#ffffff" stroke-width="0.2"></path>
    </g>
    <defs>
        <clipPath id="clip0_164_623">
            <rect x="0.5" width="50" height="50" fill="white"></rect>
        </clipPath>
    </defs>
</svg>