<svg xmlns="http://www.w3.org/2000/svg" width="53" height="53" viewBox="0 0 53 53" fill="none">
    <path d="M47.14 34.4519C47.089 34.3669 47.04 34.2849 46.982 34.2129C46.72 33.8469 46.3885 33.5361 46.0063 33.2983C45.6241 33.0605 45.1988 32.9004 44.7547 32.827C44.3106 32.7537 43.8564 32.7685 43.4181 32.8708C42.9798 32.973 42.5658 33.1606 42.2 33.4229L32.371 40.4409H22.102C21.8689 40.4409 21.6453 40.3483 21.4805 40.1835C21.3156 40.0186 21.223 39.795 21.223 39.5619C21.223 39.3288 21.3156 39.1052 21.4805 38.9404C21.6453 38.7755 21.8689 38.6829 22.102 38.6829H27.817C28.6328 38.6819 29.4148 38.3573 29.9916 37.7805C30.5685 37.2037 30.893 36.4216 30.894 35.6059C30.894 35.5959 30.894 35.5149 30.894 35.5059C30.8653 34.696 30.5194 33.9298 29.9308 33.3727C29.3423 32.8156 28.5583 32.5122 27.748 32.5279H16.31C15.2938 32.538 14.3121 32.8987 13.531 33.5489L9.23104 37.1269C9.13216 37.2097 9.05262 37.313 8.99802 37.4298C8.94343 37.5466 8.9151 37.674 8.91504 37.8029V48.3529C8.91504 48.586 9.00765 48.8096 9.17249 48.9745C9.33734 49.1393 9.56091 49.2319 9.79404 49.2319H31.607C33.0376 49.2289 34.4227 48.7287 35.525 47.8169L46.181 39.0119C46.881 38.5085 47.3675 37.7616 47.545 36.9179C47.7224 36.0742 47.578 35.1946 47.14 34.4519ZM45.114 37.6189L34.405 46.4639C33.6171 47.1152 32.6273 47.4726 31.605 47.4749H10.673V38.2159L14.656 34.8999C15.1228 34.5108 15.7094 34.2944 16.317 34.2869H27.774C28.1294 34.2821 28.4721 34.4183 28.7272 34.6657C28.9823 34.9132 29.129 35.2516 29.135 35.6069C29.1348 35.9566 28.9957 36.292 28.7484 36.5393C28.5011 36.7866 28.1658 36.9256 27.816 36.9259H22.102C21.4114 36.9394 20.7536 37.2231 20.27 37.7163C19.7863 38.2095 19.5154 38.8727 19.5154 39.5634C19.5154 40.2542 19.7863 40.9174 20.27 41.4105C20.7536 41.9037 21.4114 42.1875 22.102 42.2009H32.652C32.8359 42.2005 33.0151 42.1432 33.165 42.0369L43.224 34.8529C43.4027 34.7246 43.6049 34.6328 43.8191 34.583C44.0333 34.5331 44.2552 34.5261 44.4722 34.5624C44.6891 34.5986 44.8967 34.6774 45.0831 34.7942C45.2694 34.911 45.4308 35.0635 45.558 35.2429C45.584 35.2789 45.608 35.3159 45.631 35.3539C45.8464 35.7269 45.9127 36.1675 45.8169 36.5874C45.721 37.0072 45.4699 37.3754 45.114 37.6179V37.6189Z" fill="#ffffff"></path>
    <path d="M9.76805 36.0459H0.123047V37.8039H8.88805V50.9919H0.123047V52.7499H9.76805C10.0012 52.7499 10.2247 52.6573 10.3896 52.4924C10.5544 52.3276 10.647 52.104 10.647 51.8709V36.9249C10.647 36.6918 10.5544 36.4682 10.3896 36.3033C10.2247 36.1385 10.0012 36.0459 9.76805 36.0459Z" fill="#ffffff"></path>
    <path d="M4.51393 43.958C3.99247 43.9582 3.48277 44.113 3.04927 44.4028C2.61577 44.6927 2.27793 45.1045 2.07847 45.5863C1.879 46.0681 1.82687 46.5983 1.92865 47.1097C2.03043 47.6211 2.28156 48.0909 2.65029 48.4597C3.01902 48.8284 3.4888 49.0795 4.00023 49.1813C4.51167 49.2831 5.0418 49.2309 5.52361 49.0315C6.00541 48.832 6.41727 48.4942 6.7071 48.0607C6.99693 47.6272 7.15173 47.1175 7.15193 46.596C7.15114 45.8966 6.87295 45.2261 6.3784 44.7315C5.88385 44.237 5.21333 43.9588 4.51393 43.958ZM4.51393 47.475C4.34008 47.475 4.17014 47.4235 4.02559 47.3269C3.88104 47.2303 3.76837 47.093 3.70184 46.9324C3.63531 46.7718 3.61791 46.595 3.65182 46.4245C3.68574 46.254 3.76945 46.0974 3.89238 45.9745C4.01531 45.8515 4.17194 45.7678 4.34245 45.7339C4.51296 45.7 4.68969 45.7174 4.85031 45.7839C5.01093 45.8505 5.14821 45.9631 5.24479 46.1077C5.34138 46.2522 5.39293 46.4222 5.39293 46.596C5.39267 46.8291 5.29997 47.0525 5.13519 47.2173C4.9704 47.3821 4.74698 47.4747 4.51393 47.475Z" fill="#ffffff"></path>
    <path d="M51.994 27.2539H1.00205C0.768922 27.2539 0.545345 27.3466 0.3805 27.5114C0.215656 27.6762 0.123047 27.8998 0.123047 28.1329C0.1249 29.7645 0.773861 31.3287 1.92756 32.4824C3.08126 33.6361 4.64547 34.2851 6.27705 34.2869H46.723C48.3545 34.2848 49.9186 33.6358 51.0722 32.4821C52.2259 31.3285 52.8749 29.7644 52.877 28.1329C52.8772 28.0171 52.8544 27.9024 52.81 27.7955C52.7657 27.6885 52.7006 27.5914 52.6185 27.5097C52.5364 27.428 52.439 27.3633 52.3318 27.3194C52.2246 27.2755 52.1099 27.2533 51.994 27.2539ZM46.723 32.5289H6.27705C5.26399 32.5281 4.28224 32.1778 3.49757 31.537C2.71289 30.8963 2.17335 30.0044 1.97005 29.0119H51.023C50.82 30.0032 50.2815 30.8942 49.4982 31.5348C48.715 32.1754 47.7349 32.5265 46.723 32.5289Z" fill="#ffffff"></path>
    <path d="M26.4977 4.396C20.4375 4.40314 14.6277 6.81368 10.3425 11.0988C6.05734 15.384 3.64679 21.1939 3.63965 27.254V28.129C3.63965 28.3621 3.73226 28.5857 3.8971 28.7505C4.06195 28.9154 4.28552 29.008 4.51865 29.008H48.4776C48.5931 29.0081 48.7075 28.9855 48.8142 28.9414C48.9209 28.8972 49.0178 28.8325 49.0995 28.7508C49.1811 28.6692 49.2459 28.5722 49.29 28.4655C49.3341 28.3588 49.3568 28.2445 49.3566 28.129V27.25C49.3487 21.1903 46.9376 15.3812 42.6523 11.0968C38.367 6.8124 32.5573 4.40261 26.4977 4.396ZM5.39765 27.254C5.39765 21.6579 7.62068 16.2911 11.5777 12.334C15.5347 8.37702 20.9016 6.154 26.4977 6.154C32.0937 6.154 37.4606 8.37702 41.4176 12.334C45.3746 16.2911 47.5977 21.6579 47.5977 27.254H5.39765Z" fill="#ffffff"></path>
    <path d="M12.0348 14.4241C11.4193 15.1166 10.8536 15.8517 10.3418 16.6241L11.8078 17.5951C12.2742 16.8931 12.7895 16.2247 13.3498 15.5951L12.0348 14.4241Z" fill="#ffffff"></path>
    <path d="M26.4977 7.91309C21.5773 7.90925 16.8417 9.78759 13.2617 13.1631L14.4617 14.4441C17.716 11.3753 22.0208 9.66765 26.4937 9.67109L26.4977 7.91309Z" fill="#ffffff"></path>
    <path d="M29.1363 0H23.8613V1.758H29.1363V0Z" fill="#ffffff"></path>
    <path d="M27.3771 0.878906H25.6191V5.27491H27.3771V0.878906Z" fill="#ffffff">
    </path>
</svg>