<svg xmlns="http://www.w3.org/2000/svg" width="66" height="51" viewBox="0 0 66 51" fill="none">
    <path d="M60.3011 14.556L60.3034 14.5565C61.0225 14.7117 62.4734 15.0422 63.7329 16.3001L63.7343 16.3017C63.9786 16.5609 65.942 18.6453 65.479 21.6144L65.4789 21.615C65.0276 24.5553 62.4748 26.4079 60.2753 26.8782L60.2734 26.8787C59.5408 27.0414 58.7639 27.0285 58.0254 26.8643L58.0254 26.8643L58.0203 26.8633L58.0142 26.862C57.943 26.8478 57.8807 26.8352 57.832 26.823L57.6543 26.7785L57.5583 26.9345C57.4065 27.1812 57.1676 27.8428 57.1784 29.5147C57.1893 31.195 57.453 33.9252 58.3398 38.3383C58.3747 38.5257 58.363 38.7265 58.3038 38.9162L58.3035 38.9172C57.7967 40.5643 57.132 41.7635 56.2751 42.5881C55.4224 43.4085 54.3621 43.8747 53.03 44.0266L53.0135 44.0284L52.9974 44.0325C52.9736 44.0385 52.9588 44.0393 52.9012 44.0393H52.6512V44.2893V48.5738C52.6512 49.2212 52.1205 49.752 51.473 49.752C50.8256 49.752 50.2948 49.2212 50.2948 48.5738V44.2893V44.0393H50.0448H15.769H15.519V44.2893V48.5738C15.519 49.2212 14.9883 49.752 14.3408 49.752C13.6933 49.752 13.1626 49.2212 13.1626 48.5738V44.2893V44.0393H12.9126C12.9043 44.0393 12.8959 44.0384 12.8696 44.0346L12.8665 44.0342C12.8452 44.0311 12.8115 44.0263 12.7719 44.0252C11.4456 43.8719 10.3927 43.4062 9.54433 42.5882C8.68899 41.7635 8.02413 40.564 7.51007 38.9163L7.51005 38.9162C7.45084 38.7266 7.43916 38.5258 7.474 38.3385C8.36088 33.9324 8.62456 31.2057 8.63541 29.5254C8.64622 27.8517 8.40675 27.1896 8.25769 26.9381L8.1626 26.7776L7.98172 26.8231C7.93364 26.8351 7.8719 26.8475 7.80126 26.8617L7.79352 26.8633L7.79351 26.8632L7.78944 26.8641C7.03594 27.0285 6.27269 27.0415 5.52523 26.8785L5.5242 26.8782C3.32472 26.408 0.771916 24.5553 0.3206 21.615L0.320479 21.6142C-0.145217 18.6423 1.84509 16.5502 2.07827 16.317L1.90206 16.1408L2.07828 16.317C3.33831 15.0569 4.79075 14.726 5.5103 14.5708L5.51031 14.5708L5.51315 14.5702C6.60478 14.3214 7.72467 14.3212 8.81828 14.5565L9.01565 14.599L9.09872 14.415C12.909 5.97588 22.2803 0.251953 32.9068 0.251953C44.1851 0.251953 53.8194 5.93985 57.413 14.2825L57.4874 14.4553L57.674 14.4316C58.5452 14.321 59.4443 14.3626 60.3011 14.556ZM55.0367 15.2874L55.2367 15.1755L55.1427 14.9665C51.8076 7.55673 43.0612 2.60836 32.9068 2.60836C23.2701 2.60836 14.7312 7.72215 11.2712 15.3226L11.1808 15.5211L11.3652 15.6376C11.6314 15.8057 11.8985 15.9883 12.1521 16.1715L12.152 16.1716L12.156 16.1743C13.3869 17.0276 14.4511 18.1053 15.3061 19.3243C15.9639 20.2901 16.4825 21.3412 16.8758 22.4506L16.876 22.4512C17.934 25.4136 18.2614 28.9532 18.3468 31.4303L18.3551 31.6716H18.5966H47.2169H47.4585L47.4668 31.4303C47.5523 28.9522 47.8655 25.4135 48.9373 22.4521L48.9378 22.4506C49.3311 21.3411 49.85 20.2898 50.5077 19.3239C51.3612 18.0929 52.4393 17.0285 53.6587 16.1736L53.6587 16.1736L53.6641 16.1696C54.0971 15.8483 54.5593 15.5542 55.0367 15.2874ZM63.1739 21.2484L63.1741 21.2469C63.3131 20.3122 63.0341 19.4931 62.7264 18.9133C62.4185 18.333 62.0728 17.9746 62.0494 17.9506L62.0473 17.9485C61.263 17.1642 60.3122 16.9531 59.7657 16.8381C58.9889 16.6738 58.1968 16.6738 57.42 16.8381L57.42 16.8381L57.4155 16.8391C56.4347 17.0655 55.7991 17.5071 54.9867 18.0772C53.9897 18.7665 53.1269 19.6447 52.426 20.6375L52.426 20.6375L52.4228 20.6421C51.8812 21.4472 51.4581 22.3234 51.1378 23.2259C49.9659 26.5106 49.7809 30.6598 49.7809 32.8354C49.7809 33.4828 49.2502 34.0136 48.6027 34.0136H17.1832C16.5357 34.0136 16.005 33.4828 16.005 32.8354C16.005 30.6739 15.8199 26.5246 14.648 23.24C14.3277 22.3376 13.9046 21.4615 13.363 20.6565L13.3631 20.6564L13.3613 20.6539C12.6719 19.6565 11.7935 18.7935 10.8005 18.0924L10.7982 18.0909C10.7755 18.0752 10.753 18.0597 10.7306 18.0442C9.93957 17.4983 9.32423 17.0737 8.35616 16.8535C7.59137 16.6737 6.78236 16.6735 6.0175 16.853C5.4705 16.9683 4.52163 17.1798 3.73855 17.9628L3.66533 18.0361V18.0486C3.62892 18.0919 3.57852 18.1534 3.51944 18.2314C3.39692 18.3932 3.23661 18.6264 3.08503 18.9163C2.78294 19.4943 2.50758 20.3137 2.65439 21.2488C2.80881 22.2443 3.36414 23.009 4.01606 23.5517C4.66577 24.0925 5.42395 24.424 6.01867 24.5535L6.0195 24.5537C6.45658 24.6474 6.92049 24.632 7.35201 24.5255L7.36209 24.5237C7.84624 24.4381 8.43989 24.3333 9.11063 24.637L9.11134 24.6373C10.1734 25.1144 10.8191 26.2781 10.9601 28.5185C11.1007 30.7534 10.7316 33.9757 9.85389 38.4284L9.84108 38.4934L9.86213 38.5562C10.3136 39.9031 10.8423 40.6641 11.3986 41.0981C11.959 41.5353 12.5178 41.6159 12.9551 41.667L12.9696 41.6687H12.9841H52.8441H52.8586L52.873 41.667C53.3108 41.616 53.866 41.5352 54.4246 41.0979C54.9786 40.6641 55.5072 39.9036 55.9657 38.5573L55.9872 38.494L55.9743 38.4284C55.0966 33.9757 54.7275 30.7534 54.8681 28.5185C55.0091 26.2781 55.6547 25.1144 56.7168 24.6373L56.7169 24.6374L56.7211 24.6354C57.3957 24.3171 57.9928 24.4259 58.4727 24.5246C58.9054 24.6319 59.3559 24.6474 59.8069 24.5541L59.7563 24.3093L59.8065 24.5542C60.4037 24.4317 61.1628 24.0994 61.8124 23.5567C62.4645 23.0121 63.0196 22.2438 63.1739 21.2484Z" fill="#ffffff" stroke="#ffffff" stroke-width="0.5"></path>
</svg>