<svg xmlns="http://www.w3.org/2000/svg" width="46" height="50" viewBox="0 0 46 50" fill="none">
    <path d="M44.5592 21.533C43.8276 21.5228 43.1152 21.7675 42.5443 22.2253C43.5372 17.7737 41.9665 13.7331 38.8309 12.8931C37.9598 12.6689 37.0421 12.7061 36.1921 13.0001C36.3844 12.5277 36.6855 12.1074 37.0709 11.7733C37.3968 11.5265 37.7717 11.3523 38.1704 11.2625C38.5692 11.1726 38.9826 11.1692 39.3828 11.2524C39.4956 11.2698 39.6108 11.2645 39.7216 11.2368C39.8324 11.2092 39.9366 11.1597 40.0281 11.0914C40.1196 11.0231 40.1966 10.9372 40.2545 10.8388C40.3125 10.7404 40.3503 10.6315 40.3657 10.5183C40.3811 10.4052 40.3739 10.2901 40.3443 10.1798C40.3148 10.0695 40.2636 9.96615 40.1938 9.87583C40.1239 9.78551 40.0367 9.71 39.9374 9.65372C39.838 9.59744 39.7284 9.5615 39.615 9.54801C38.9805 9.43019 38.3281 9.44905 37.7015 9.60332C37.0748 9.75759 36.4882 10.0437 35.9809 10.4426C35.3043 11.0235 34.7911 11.7709 34.4921 12.6111C33.8936 11.8877 33.0882 11.3647 32.1839 11.1122C31.5326 10.9526 30.8555 10.9275 30.1942 11.0384C29.5328 11.1494 28.901 11.394 28.3374 11.7574C27.4384 10.4911 26.2046 9.50008 24.7743 8.89528V6.90938C25.0024 6.90938 25.2212 6.81875 25.3825 6.65743C25.5438 6.49611 25.6345 6.27731 25.6345 6.04917V2.60831C25.6345 2.38016 25.5438 2.16136 25.3825 2.00004C25.2212 1.83872 25.0024 1.74809 24.7743 1.74809H17.8925C17.6644 1.74809 17.4456 1.83872 17.2843 2.00004C17.1229 2.16136 17.0323 2.38016 17.0323 2.60831V6.04917C17.0323 6.27731 17.1229 6.49611 17.2843 6.65743C17.4456 6.81875 17.6644 6.90938 17.8925 6.90938V8.89441C16.2255 9.59674 14.8308 10.8201 13.9172 12.3814C11.3549 5.72676 7.46346 -0.843134 3.88041 0.118844C1.89623 0.650113 0.794901 3.33158 0.694944 7.87334C0.714661 12.5386 1.33816 17.1817 2.54991 21.6868C2.22368 21.5831 1.8832 21.5312 1.54088 21.533C1.31274 21.533 1.09394 21.6237 0.932615 21.785C0.771294 21.9463 0.680664 22.1651 0.680664 22.3933V49.0599C0.680664 49.2881 0.771294 49.5069 0.932615 49.6682C1.09394 49.8295 1.31274 49.9201 1.54088 49.9201H44.5592C44.7873 49.9201 45.0061 49.8295 45.1675 49.6682C45.3288 49.5069 45.4194 49.2881 45.4194 49.0599V22.3933C45.4194 22.1651 45.3288 21.9463 45.1675 21.785C45.0061 21.6237 44.7873 21.533 44.5592 21.533ZM31.7383 12.7734C32.2642 12.9536 32.7403 13.255 33.1282 13.6532C33.5161 14.0515 33.8049 14.5354 33.9712 15.0659C34.0206 15.1906 34.0986 15.3021 34.1988 15.3913C34.299 15.4805 34.4188 15.5451 34.5484 15.5798C34.678 15.6145 34.814 15.6184 34.9454 15.5911C35.0768 15.5639 35.2 15.5063 35.3052 15.4229C35.7148 15.0471 36.2069 14.7727 36.742 14.6219C37.277 14.4711 37.84 14.4481 38.3856 14.5547C40.637 15.1579 41.724 18.7117 40.7588 22.3147C40.6167 22.8303 40.4353 23.3342 40.2163 23.8221C39.573 23.8097 39.2572 23.5144 38.7293 22.9514C38.4112 22.5122 37.9936 22.1546 37.5106 21.908C37.0276 21.6614 36.4931 21.5328 35.9508 21.5328C35.4085 21.5328 34.8739 21.6614 34.3909 21.908C33.9079 22.1546 33.4903 22.5122 33.1723 22.9514C32.6329 23.5265 32.3213 23.8264 31.6497 23.8264C30.9781 23.8264 30.6668 23.5265 30.1271 22.9514C29.8008 22.5214 29.3817 22.1706 28.901 21.925C28.4203 21.6794 27.8903 21.5454 27.3507 21.533C26.6985 21.5237 26.0598 21.7193 25.5247 22.0922C25.3698 20.8245 25.4641 19.5387 25.8025 18.3072C26.7677 14.7055 29.4735 12.1673 31.7383 12.7734ZM18.7528 3.46852H23.914V5.18895H18.7528V3.46852ZM19.0249 10.3061C19.1962 10.249 19.3451 10.1394 19.4507 9.99298C19.5562 9.84651 19.613 9.67056 19.613 9.49003V6.90938H23.0538V9.49003C23.0538 9.67056 23.1106 9.84651 23.2161 9.99298C23.3217 10.1394 23.4706 10.249 23.6419 10.3061C24.9933 10.7599 26.1629 11.6367 26.9774 12.8068C25.5974 14.2085 24.618 15.9542 24.1409 17.8624C23.6257 19.6904 23.5891 21.62 24.0346 23.4662C23.7638 23.7057 23.4127 23.8344 23.0513 23.8268C22.3804 23.8268 22.0676 23.5269 21.5288 22.9514C21.211 22.5122 20.7935 22.1546 20.3107 21.9081C19.8279 21.6615 19.2934 21.533 18.7513 21.533C18.2091 21.5331 17.6747 21.6618 17.192 21.9085C16.7092 22.1553 16.2919 22.513 15.9743 22.9523C15.4358 23.5269 15.1233 23.8268 14.453 23.8268H14.4517V16.6511C14.4504 15.247 14.8916 13.8783 15.7126 12.7393C16.5335 11.6003 17.6925 10.7489 19.0249 10.3061ZM4.32565 1.78044C6.142 1.2976 9.94776 6.12573 12.9635 14.7835C12.8162 15.3954 12.7383 16.0218 12.7312 16.6511V22.7436C12.4144 22.367 12.0196 22.0637 11.574 21.8546C11.1284 21.6456 10.6428 21.5359 10.1506 21.533C9.61048 21.5454 9.08009 21.6794 8.59885 21.925C8.11762 22.1705 7.6979 22.5214 7.3709 22.9514C6.83155 23.5265 6.51817 23.8268 5.84531 23.8268C5.65138 23.8307 5.45862 23.7961 5.27815 23.725C5.09768 23.6539 4.93308 23.5478 4.79387 23.4127C4.68084 23.0203 4.56866 22.6271 4.46088 22.2273C3.13501 17.5698 2.4469 12.754 2.41537 7.91153C2.50699 3.74379 3.46208 2.01183 4.32565 1.78044ZM2.40109 23.5071C2.64347 23.6909 2.86616 23.8992 3.06561 24.1288C3.39261 24.5589 3.81233 24.9097 4.29356 25.1553C4.7748 25.4009 5.30518 25.5348 5.84531 25.5472C6.38558 25.535 6.91614 25.4011 7.39753 25.1555C7.87892 24.9099 8.29877 24.559 8.62587 24.1288C9.16522 23.5533 9.4786 23.2535 10.1506 23.2535C10.8226 23.2535 11.1343 23.5533 11.6732 24.1284C11.991 24.5677 12.4085 24.9253 12.8913 25.172C13.3742 25.4186 13.9086 25.5472 14.4508 25.5472C14.993 25.5472 15.5275 25.4186 16.0103 25.172C16.4932 24.9253 16.9106 24.5677 17.2285 24.1284C17.7678 23.5533 18.0795 23.2535 18.751 23.2535C19.4226 23.2535 19.7339 23.5533 20.2736 24.1284C20.5914 24.5677 21.0089 24.9253 21.4917 25.172C21.9746 25.4186 22.509 25.5472 23.0512 25.5472C23.5934 25.5472 24.1279 25.4186 24.6108 25.172C25.0936 24.9253 25.5111 24.5677 25.8289 24.1284C26.3682 23.5533 26.6798 23.2535 27.3515 23.2535C28.0231 23.2535 28.3343 23.5533 28.874 24.1284C29.1918 24.5677 29.6092 24.9253 30.0919 25.172C30.5747 25.4186 31.1091 25.5472 31.6513 25.5472C32.1934 25.5472 32.7278 25.4186 33.2106 25.172C33.6934 24.9253 34.1108 24.5677 34.4285 24.1284C34.6275 23.9016 34.8495 23.6962 35.0909 23.5152V48.1997H2.40273L2.40109 23.5071ZM43.699 48.1997H36.8097V23.5141C37.052 23.6953 37.2747 23.9013 37.4742 24.1288C37.7926 24.5681 38.2106 24.9256 38.6938 25.1721C39.1771 25.4187 39.7118 25.5472 40.2543 25.5472C40.7968 25.5472 41.3316 25.4187 41.8149 25.1721C42.2981 24.9256 42.7161 24.5681 43.0345 24.1288C43.2339 23.8992 43.4566 23.6909 43.699 23.5071V48.1997Z" fill="#ffffff"></path>
</svg>