<svg xmlns="http://www.w3.org/2000/svg" width="52.201" height="47.679" viewBox="0 0 52.201 47.679">
  <path id="Union_9" data-name="Union 9" d="M5.678,47.679V26.05l1.135-1.008,19.3-17.234q4.046,3.636,8.092,7.272l.238.215q3.29,2.952,6.584,5.91l3.383,3.039.982.883,1.135,1.019V47.678H34.168V32.671a4.711,4.711,0,0,0-1.416-3.352,4.879,4.879,0,0,0-3.412-1.391h-6.48a4.863,4.863,0,0,0-3.41,1.39,4.7,4.7,0,0,0-1.414,3.353V47.679ZM46.525,23.907c-.326-.3-.656-.592-.986-.883q-1.687-1.521-3.381-3.039-3.407-3.067-6.818-6.125L26.117,5.572,6.566,23.024c-.295.264-.594.529-.889.8q-1,.888-2,1.786Q1.84,24.313,0,23.024,13.061,11.511,26.123,0q4.614,4.068,9.217,8.135,3.747,3.308,7.49,6.617,4.69,4.133,9.369,8.271h0L48.521,25.7C47.859,25.1,47.191,24.5,46.525,23.907Zm-10.061-17-.385-.338-.74-.654V2.153h7.49V12.527Q39.648,9.719,36.465,6.905Z" fill="#ffffff"/>
</svg>
