<svg xmlns="http://www.w3.org/2000/svg" width="50" height="51" viewBox="0 0 50 51" fill="none">
    <path d="M49.714 14.4898C49.3325 14.1084 48.7144 14.1084 48.3328 14.4898C48.1994 14.6231 48.0628 14.7492 47.9237 14.8697L40.4571 7.40304C40.0758 7.0217 39.4576 7.0217 39.076 7.40304C38.6946 7.78439 38.6946 8.40275 39.076 8.7841L46.2587 15.9668C43.0447 17.5257 38.8363 16.8691 34.422 16.1561C34.1108 14.3611 33.8355 12.6068 33.752 10.9351L37.8124 14.9955C38.0031 15.1862 38.253 15.2815 38.5029 15.2815C38.7529 15.2815 39.0028 15.1861 39.1935 14.9955C39.5748 14.6142 39.5748 13.9958 39.1935 13.6145L33.8167 8.23771C34.0548 6.13498 34.7945 4.22297 36.4141 2.60344L36.4313 2.58625C36.812 2.20432 36.8113 1.58606 36.4293 1.2052C36.0474 0.82444 35.429 0.825221 35.0482 1.20715L35.032 1.22336C31.0171 5.2382 31.4969 10.5462 32.3853 15.8329C27.0061 15.0139 21.6296 14.6257 17.6761 18.5791C13.5802 22.6751 14.2762 28.2024 15.2207 33.6485C9.73903 32.7728 4.16833 32.0872 0.28601 35.9696C-0.0953368 36.351 -0.0953368 36.9693 0.28601 37.3508C0.476733 37.5415 0.726635 37.6368 0.976537 37.6368C1.22644 37.6368 1.47634 37.5414 1.66706 37.3508C3.26208 35.7557 5.26579 35.1041 7.51696 34.9539L13.5695 41.0064C13.7602 41.1971 14.0101 41.2924 14.26 41.2924C14.5099 41.2924 14.7598 41.1971 14.9505 41.0064C15.3319 40.6251 15.3319 40.0067 14.9505 39.6253L10.3103 34.985C11.9955 35.1097 13.7693 35.3922 15.5778 35.6843C16.318 39.9538 16.8561 43.9937 15.0882 47.238L6.94059 39.0901C6.55924 38.7089 5.94089 38.7088 5.55944 39.0901C5.17809 39.4715 5.17809 40.0898 5.55944 40.4713L13.9448 48.8566C13.83 48.985 13.7108 49.1119 13.5857 49.2369L13.5685 49.2541C13.1878 49.636 13.1885 50.2542 13.5705 50.6351C13.7611 50.8251 14.0106 50.9202 14.2601 50.9202C14.5104 50.9202 14.7609 50.8245 14.9516 50.6332L14.9678 50.6169C18.9827 46.6021 18.5029 41.2941 17.6145 36.0074C22.9937 36.8264 28.3702 37.2146 32.3237 33.2612C36.4196 29.1652 35.7236 23.6379 34.7791 18.1918C40.2611 19.0676 45.8316 19.7531 49.714 15.8709C50.0953 15.4896 50.0953 14.8712 49.714 14.4898ZM17.261 33.9762C16.8442 31.6093 16.4545 29.3037 16.4495 27.161L20.1042 30.8159C20.295 31.0066 20.5449 31.1019 20.7948 31.1019C21.0447 31.1019 21.2946 31.0065 21.4853 30.8159C21.8666 30.4346 21.8666 29.8162 21.4853 29.4348L16.6624 24.6119C16.927 23.1913 17.4624 21.8748 18.3977 20.6991L30.2241 32.5255C26.8278 35.2554 22.2016 34.7559 17.261 33.9762ZM28.5832 22.4652L33.3389 27.2209C33.0747 28.6444 32.5391 29.9635 31.6022 31.1413L19.7759 19.315C23.1723 16.585 27.7984 17.0846 32.739 17.8643C33.1551 20.2278 33.5443 22.5301 33.5504 24.6701L29.9644 21.0842C29.5829 20.7028 28.9648 20.7028 28.5832 21.0842C28.2019 21.4655 28.2019 22.0839 28.5832 22.4652Z" fill="#ffffff"></path>
</svg>