<svg width="512" height="512" viewBox="0 0 512 512" fill="none" xmlns="http://www.w3.org/2000/svg">
<path d="M468.163 80.8008H414.602C413.354 79.2928 411.794 77.9407 409.922 77.0557L261.512 7.73975C257.612 5.91875 253.192 5.97175 249.292 7.84375L101.818 79.1888C100.934 79.6048 100.206 80.2288 99.4264 80.8008H43.8384C23.1944 80.8008 6.39844 97.5967 6.39844 118.241V414.592C6.39844 435.236 23.1944 452.032 43.7864 452.032H210.656C208.732 465.76 200.62 483.753 182.576 496.076C178.364 498.988 180.392 505.593 185.488 505.593H326.462C331.558 505.593 333.586 498.989 329.374 496.076C311.33 483.753 303.218 465.76 301.294 452.032H468.112C488.756 452.032 505.604 435.288 505.604 414.592V118.241C505.603 97.5967 488.807 80.8008 468.163 80.8008ZM183.979 143.202L184.447 211.738C184.447 214.598 186.787 216.886 189.647 216.886C192.559 216.834 194.847 214.494 194.847 211.634L194.379 148.089L250.436 174.245C254.284 176.065 259.12 175.857 262.656 174.141C263.228 173.881 263.644 173.673 263.904 173.568H263.956C264.06 173.465 264.112 173.465 264.164 173.465C269.208 171.02 289.696 161.089 359.949 127.08L360.625 231.498C360.677 236.021 357.141 240.39 350.173 244.446C312.888 266.338 201.399 267.118 163.803 245.746C156.783 241.742 153.195 237.425 153.143 232.954L152.467 128.484L183.979 143.202ZM495.203 380.688H16.7974V118.241C16.7974 103.317 28.9134 91.2007 43.8374 91.2007H93.8624C93.4984 96.7127 96.7224 102.433 102.026 104.929C102.546 105.137 139.674 122.506 142.014 123.598L142.742 233.007C142.794 241.482 148.15 248.815 158.654 254.795C178.518 266.079 216.323 271.643 254.491 271.643C294.479 271.643 334.832 265.507 355.476 253.443C365.876 247.359 371.076 239.922 371.024 231.447L370.296 122.09L410.128 102.85C414.34 100.769 417.668 96.2978 418.084 91.2018H468.161C483.085 91.2018 495.201 103.318 495.201 118.242V380.688H495.203Z" fill="#ffffff"/>
</svg>
