<svg xmlns="http://www.w3.org/2000/svg" width="51" height="50" viewBox="0 0 51 50" fill="none">
<g clip-path="url(#clip0_164_645)">
    <path d="M26.5437 50C26.5083 50 26.4749 49.9979 26.4395 49.9958C25.8666 49.9396 25.4478 49.4291 25.5041 48.8562L25.8791 45.0646C25.9374 44.4916 26.4541 44.0771 27.0187 44.1312C27.5916 44.1875 28.0103 44.6979 27.9541 45.2708L27.5791 49.0625C27.5249 49.5979 27.0728 50 26.5437 50Z" fill="#ffffff"></path>
    <path d="M27.4812 40.5C27.4458 40.5 27.4124 40.4979 27.377 40.4958C26.8041 40.4396 26.3853 39.9292 26.4416 39.3562L27.1062 32.6271C27.1645 32.0562 27.6791 31.6458 28.2458 31.6937C28.8187 31.75 29.2374 32.2604 29.1812 32.8333L28.5166 39.5625C28.4624 40.0979 28.0103 40.5 27.4812 40.5Z" fill="#ffffff"></path>
    <path d="M28.7104 28.0625C28.675 28.0625 28.6417 28.0604 28.6062 28.0583C28.0354 28.0021 27.6146 27.4938 27.6708 26.9208L29.6417 6.76042C29.6417 6.72917 29.6437 6.69792 29.6458 6.66667C29.6604 6.52917 29.6667 6.38958 29.6667 6.25C29.6667 3.95208 27.7979 2.08333 25.5 2.08333C23.2021 2.08333 21.3333 3.95208 21.3333 6.25C21.3333 6.38958 21.3396 6.52917 21.3542 6.66458C21.3563 6.69583 21.3583 6.72917 21.3583 6.76042L23.3104 26.6688C23.3646 27.2417 22.9458 27.7521 22.375 27.8063C21.8167 27.8667 21.2917 27.4458 21.2354 26.8708L19.2771 6.87083C19.2729 6.83542 19.2708 6.8 19.2708 6.76458C19.2563 6.59583 19.25 6.42292 19.25 6.25C19.25 2.80417 22.0542 0 25.5 0C28.9458 0 31.75 2.80417 31.75 6.25C31.75 6.42292 31.7437 6.59792 31.7292 6.76667C31.7292 6.80208 31.7271 6.8375 31.725 6.87292L29.7458 27.1229C29.6937 27.6604 29.2396 28.0625 28.7104 28.0625Z" fill="#ffffff"></path>
    <path d="M23.4978 40.3749C22.9686 40.3749 22.5145 39.9729 22.4624 39.4354L21.7957 32.6229C21.7416 32.0499 22.1603 31.5395 22.7311 31.4854C23.3061 31.4499 23.8145 31.8458 23.8707 32.4208L24.5374 39.2333C24.5916 39.8062 24.1728 40.3166 23.602 40.3708C23.5666 40.3729 23.5332 40.3749 23.4978 40.3749Z" fill="#ffffff"></path>
    <path d="M24.4561 49.9999C23.927 49.9999 23.4728 49.5978 23.4207 49.0582L23.0457 45.1832C22.9916 44.6124 23.4103 44.102 23.9832 44.0478C24.5166 43.9978 25.0666 44.4103 25.1207 44.9853L25.4957 48.8603C25.5499 49.4311 25.1311 49.9416 24.5582 49.9957C24.5249 49.9978 24.4916 49.9999 24.4561 49.9999Z" fill="#ffffff"></path>
    <path d="M33.2745 20.8437C31.8974 20.8437 30.5495 20.7083 29.2266 20.4354C28.662 20.3208 28.3016 19.7708 28.4141 19.2062C28.5308 18.6416 29.087 18.2854 29.6454 18.3937C34.9683 19.4812 40.7704 18.1354 47.9079 14.15C48.2349 13.9687 48.4204 13.7146 48.4183 13.45C48.4183 13.1833 48.2287 12.9271 47.8974 12.7479L41.337 9.18539C38.8745 7.84373 35.5662 8.10831 33.4683 9.80831L30.9329 11.8875C30.4829 12.25 29.8308 12.1875 29.4662 11.7416C29.1016 11.2979 29.1662 10.6416 29.6099 10.275L32.1516 8.19164C34.9308 5.94373 39.1141 5.59998 42.3329 7.35414L48.8933 10.9146C49.8974 11.4646 50.4995 12.4104 50.5016 13.4458C50.5058 14.4791 49.9141 15.425 48.9204 15.9729C43.0495 19.2521 37.9745 20.8437 33.2745 20.8437Z" fill="#ffffff"></path>
    <path d="M17.7252 20.8436C13.0252 20.8436 7.95224 19.252 2.07515 15.9707C1.08557 15.4249 0.493902 14.479 0.498069 13.4457C0.500152 12.4103 1.10224 11.4645 2.1064 10.9186L8.67099 7.35613C11.8897 5.60613 16.0731 5.94571 18.8439 8.18946L21.3918 10.277C21.8356 10.6415 21.9002 11.2978 21.5356 11.7436C21.1689 12.1895 20.5147 12.2499 20.0689 11.8895L17.5272 9.80613C15.4335 8.1103 12.1252 7.84988 9.66474 9.1853L3.10015 12.7499C2.77099 12.929 2.5814 13.1853 2.5814 13.452C2.57932 13.7165 2.76474 13.9728 3.08765 14.1499C10.2252 18.1353 16.0252 19.4874 21.3543 18.3957C21.9127 18.2874 22.4689 18.6415 22.5856 19.2082C22.7002 19.7728 22.3377 20.3228 21.7731 20.4374C20.4481 20.7082 19.1022 20.8436 17.7252 20.8436Z" fill="#ffffff"></path>
    <path d="M37.1455 31.2293C36.7455 31.2293 36.3622 30.9959 36.1914 30.6043C35.9622 30.0772 36.2018 29.4626 36.7289 29.2334C38.8601 28.3022 40.083 27.1376 40.083 26.0418C40.083 25.6251 39.8914 25.1834 39.5143 24.7293C39.1455 24.2876 39.206 23.6314 39.6455 23.2626C40.0893 22.898 40.7455 22.9564 41.1122 23.3959C41.8122 24.2355 42.1664 25.1251 42.1664 26.0418C42.1664 28.0355 40.531 29.8459 37.5622 31.1418C37.4268 31.2022 37.2851 31.2293 37.1455 31.2293Z" fill="#ffffff"></path>
    <path d="M18.6875 44.6042C18.5583 44.6042 18.4271 44.5813 18.3 44.5292C14.9812 43.2021 13 40.9646 13 38.5417C13 37.5021 13.3667 36.4584 14.0604 35.5251C14.4021 35.0626 15.0563 34.9688 15.5167 35.3084C15.9792 35.6521 16.0771 36.3042 15.7333 36.7646C15.3 37.348 15.0833 37.9438 15.0833 38.5417C15.0833 40.0813 16.575 41.5959 19.075 42.5959C19.6104 42.8105 19.8688 43.4167 19.6542 43.9501C19.4917 44.3584 19.1021 44.6042 18.6875 44.6042Z" fill="#ffffff"></path>
    <path d="M25.4997 45.8333C24.9247 45.8333 24.458 45.3666 24.458 44.7916C24.458 44.2166 24.9247 43.7499 25.4997 43.7499C31.1455 43.7499 35.9163 41.3645 35.9163 38.5416C35.9163 35.7187 31.1455 33.3333 25.4997 33.3333C24.558 33.3333 23.6372 33.2895 22.7393 33.227C14.5518 32.6708 8.83301 29.7145 8.83301 26.0416C8.83301 25.1249 9.18717 24.2354 9.88717 23.3958C10.2559 22.9541 10.9122 22.8958 11.3538 23.2624C11.7955 23.6312 11.8538 24.2874 11.4851 24.7291C11.108 25.1833 10.9163 25.6249 10.9163 26.0416C10.9163 28.1062 15.4913 30.6458 22.883 31.1479C23.7351 31.2083 24.6059 31.2499 25.4997 31.2499C32.508 31.2499 37.9997 34.4541 37.9997 38.5416C37.9997 42.6291 32.508 45.8333 25.4997 45.8333Z" fill="#ffffff"></path>
</g>
<defs>
    <clipPath id="clip0_164_645">
        <rect width="50" height="50" fill="white" transform="translate(0.5)">
        </rect>
    </clipPath>
</defs>
</svg>