<svg xmlns="http://www.w3.org/2000/svg" width="51" height="50" viewBox="0 0 51 50" fill="none">
    <g clip-path="url(#clip0_164_702)">
        <path d="M34.5407 31.6667H16.4574C15.7035 31.667 15.0304 32.1393 14.774 32.8482C14.5174 33.5571 14.7324 34.3508 15.3116 34.8334L18.0132 37.0834C18.3352 37.3517 18.7408 37.499 19.1599 37.5H31.8383C32.2574 37.499 32.663 37.3517 32.985 37.0834L35.6866 34.8334C36.2658 34.3508 36.4807 33.5571 36.2243 32.8482C35.9676 32.1393 35.2946 31.6669 34.5407 31.6667ZM34.624 33.5534L31.9232 35.8034C31.8995 35.8224 31.8701 35.8328 31.8398 35.8326H19.1615C19.1312 35.8331 19.1015 35.8228 19.0782 35.8034L16.3765 33.5534C16.3355 33.5197 16.3205 33.4636 16.3391 33.4139C16.3577 33.3642 16.4059 33.3318 16.459 33.3334H34.5423C34.5955 33.3315 34.644 33.3636 34.6629 33.4135C34.6817 33.4633 34.6667 33.5195 34.6256 33.5534H34.624Z" fill="#ffffff"></path>
        <path d="M40.5245 32.0834L37.8145 34.3334C37.2333 34.8152 37.017 35.6098 37.2738 36.3197C37.5307 37.0296 38.2055 37.5018 38.9604 37.5001H45.5004C46.4209 37.5001 47.1671 36.7539 47.1671 35.8334V33.3334C47.1671 32.4129 46.4209 31.6667 45.5004 31.6667H41.6712C41.2521 31.6679 40.8466 31.8152 40.5245 32.0834ZM45.5004 33.3334V35.8333H38.9604C38.9059 35.8387 38.8559 35.8032 38.8428 35.75C38.8206 35.7019 38.8365 35.6448 38.8803 35.615L41.5912 33.36C41.6146 33.3407 41.6442 33.3306 41.6745 33.3317L45.5004 33.3334Z" fill="#ffffff"></path>
        <path d="M10.4756 32.0834C10.1546 31.8162 9.75068 31.6689 9.33305 31.6667H5.49969C4.57921 31.6667 3.83301 32.4129 3.83301 33.3334V35.8334C3.83301 36.7539 4.57921 37.5001 5.49969 37.5001H12.038C12.7931 37.5022 13.4681 37.0301 13.7252 36.3201C13.9822 35.6102 13.7659 34.8153 13.1847 34.3335L10.4756 32.0834ZM12.1573 35.75C12.1442 35.8032 12.0942 35.8387 12.0397 35.8333H5.49969V33.3334H9.33305C9.36339 33.3322 9.393 33.3423 9.41638 33.3616L12.1281 35.6175C12.1679 35.6492 12.1801 35.7046 12.1573 35.75Z" fill="#ffffff"></path>
        <path fill-rule="evenodd" clip-rule="evenodd" d="M11.3337 40H5.50029C5.04009 40 4.66699 40.3731 4.66699 40.8333C4.66699 41.2935 5.04009 41.6666 5.50029 41.6666H11.3337C11.7939 41.6666 12.167 41.2935 12.167 40.8333C12.167 40.3731 11.7939 40 11.3337 40Z" fill="#ffffff"></path>
        <path fill-rule="evenodd" clip-rule="evenodd" d="M45.5006 40H39.6673C39.2071 40 38.834 40.3731 38.834 40.8333C38.834 41.2935 39.2071 41.6666 39.6673 41.6666H45.5006C45.9608 41.6666 46.3339 41.2935 46.3339 40.8333C46.3339 40.3731 45.9608 40 45.5006 40Z" fill="#ffffff"></path>
        <path fill-rule="evenodd" clip-rule="evenodd" d="M33.0003 40H18.0003C17.5401 40 17.167 40.3731 17.167 40.8333C17.167 41.2935 17.5401 41.6666 18.0003 41.6666H33.0003C33.4605 41.6666 33.8336 41.2935 33.8336 40.8333C33.8336 40.3731 33.4605 40 33.0003 40Z" fill="#ffffff"></path>
        <path d="M50.5 24.1666C50.5 22.7859 49.3807 21.6666 48 21.6666H46.3333C45.6072 21.669 44.9184 21.989 44.4483 22.5424L42.8833 17.8491C42.3178 16.1467 40.7248 14.9984 38.9308 15H12.0691C10.2752 14.9984 8.68212 16.1467 8.1166 17.8491L6.55162 22.5424C6.08149 21.9891 5.39279 21.669 4.6666 21.6666H3C1.61931 21.6666 0.50001 22.7859 0.50001 24.1666C0.50001 25.5473 1.61931 26.6666 3 26.6666H4.32163L1.23251 29.7558C0.761893 30.2233 0.498124 30.8599 0.50001 31.5232V42.4999C0.504357 43.5555 1.17141 44.4946 2.1667 44.8466V47.4999C2.1667 48.8806 3.28599 49.9999 4.66668 49.9999H10.5C11.8807 49.9999 13 48.8806 13 47.4999V44.9999H38V47.4999C38 48.8806 39.1193 49.9999 40.5 49.9999H46.3333C47.714 49.9999 48.8333 48.8806 48.8333 47.4999V44.8466C49.8286 44.4947 50.4956 43.5555 50.5 42.4999V31.5232C50.5019 30.8599 50.2381 30.2233 49.7675 29.7558L46.6784 26.6666H48C49.3807 26.6666 50.5 25.5473 50.5 24.1666ZM9.6975 18.3766C10.0375 17.3556 10.993 16.6667 12.0691 16.6666H38.9308C40.0071 16.6667 40.9624 17.3556 41.3024 18.3766L43.51 25H7.48999L9.6975 18.3766ZM3 25C2.5398 25 2.1667 24.6269 2.1667 24.1667C2.1667 23.7064 2.5398 23.3333 3 23.3333H4.66668C5.12689 23.3333 5.49999 23.7064 5.49999 24.1667V25H3ZM11.3333 47.4999C11.3333 47.9601 10.9602 48.3332 10.5 48.3332H4.66668C4.20648 48.3332 3.83338 47.9601 3.83338 47.4999V44.9999H11.3333V47.4999ZM47.1666 47.4999C47.1666 47.9601 46.7935 48.3332 46.3333 48.3332H40.5C40.0398 48.3332 39.6667 47.9601 39.6667 47.4999V44.9999H47.1666V47.4999ZM48.5892 30.9341C48.7447 31.0908 48.8324 31.3025 48.8333 31.5232V42.4999C48.8333 42.9601 48.4602 43.3332 48 43.3332H3C2.5398 43.3332 2.1667 42.9601 2.1667 42.4999V31.5232C2.1676 31.3024 2.25528 31.0908 2.41086 30.9341L6.67834 26.6666H44.3217L48.5892 30.9341ZM45.5 25V24.1667C45.5 23.7064 45.8731 23.3333 46.3333 23.3333H48C48.4602 23.3333 48.8333 23.7064 48.8333 24.1667C48.8333 24.6269 48.4602 25 48 25H45.5Z" fill="#ffffff"></path>
        <path d="M11.1912 13.3333H18.8337C19.8894 13.329 20.8285 12.6619 21.1804 11.6666H22.3055C22.9712 11.6649 23.6094 11.4005 24.0813 10.9308L24.7671 10.2449C24.9239 10.0877 25.1368 9.99955 25.3588 9.99996H28.4888C28.931 10.0012 29.3554 9.82534 29.6671 9.51162L30.5004 8.67832L31.3337 9.51162C31.6455 9.82526 32.0699 10.0012 32.5121 9.99996H34.3221C34.7643 10.0012 35.1887 9.82534 35.5004 9.51162L36.3337 8.67832L37.167 9.51162C37.4788 9.82526 37.9031 10.0012 38.3454 9.99996H39.942C40.3024 9.99865 40.6529 9.88185 40.942 9.66664L43.167 7.99995C43.5866 7.68517 43.8336 7.19117 43.8336 6.66659C43.8336 6.142 43.5866 5.64801 43.167 5.33322L40.942 3.66654C40.6531 3.45091 40.3025 3.33403 39.942 3.33321H25.3587C25.1343 3.33198 24.9195 3.24217 24.7612 3.08322L24.0753 2.39739C23.6072 1.92825 22.9714 1.66522 22.3087 1.66653H21.1803C20.8285 0.671406 19.8893 0.00443657 18.8336 7.60537e-06H11.1911C10.5275 -0.00163275 9.89082 0.262137 9.42282 0.732509L7.8995 2.25583C7.42889 2.72341 7.16512 3.35995 7.167 4.02331V9.30994C7.16512 9.9733 7.42889 10.6098 7.8995 11.0774L9.42282 12.6007C9.89065 13.0716 10.5275 13.3355 11.1912 13.3333ZM21.3337 3.33338H22.3087C22.5308 3.33297 22.7437 3.42114 22.9004 3.57837L23.5862 4.2642C24.0581 4.73383 24.6963 4.99826 25.3621 5.00006H39.9455L42.1672 6.66675L39.9422 8.33344H38.3455L37.5122 7.50013C36.8614 6.84949 35.8064 6.84949 35.1555 7.50013L34.3222 8.33344H32.5123L31.679 7.50013C31.0281 6.84949 29.9731 6.84949 29.3223 7.50013L28.489 8.33344H25.359C24.6947 8.33188 24.0574 8.59589 23.589 9.06676L22.9023 9.75259C22.7443 9.91162 22.5298 10.0015 22.3056 10.0026H21.3337V3.33338ZM8.83369 9.31002V4.02331C8.83459 3.80252 8.92227 3.59083 9.07786 3.43418L10.6012 1.91086C10.7576 1.75437 10.9699 1.66653 11.1912 1.66669H18.8337C19.2939 1.66669 19.667 2.03979 19.667 2.5V10.8333C19.667 11.2935 19.2939 11.6666 18.8337 11.6666H11.1912C10.9699 11.6668 10.7577 11.579 10.6012 11.4225L9.07786 9.89916C8.92227 9.7425 8.83451 9.53082 8.83369 9.31002Z" fill="#ffffff"></path>
        <path d="M12.1667 9.99999H13.8334C14.7539 9.99999 15.5001 9.2538 15.5001 8.33331V4.99994C15.5001 4.07945 14.7539 3.33325 13.8334 3.33325H12.1667C11.2462 3.33325 10.5 4.07945 10.5 4.99994V8.33331C10.5001 9.2538 11.2463 9.99999 12.1667 9.99999ZM12.1667 4.99994H13.8334V8.33331H12.1667V4.99994Z" fill="#ffffff"></path>
    </g>
    <defs>
        <clipPath id="clip0_164_702">
            <rect width="50" height="50" fill="white" transform="translate(0.5)"></rect>
        </clipPath>
    </defs>
</svg>