<svg xmlns="http://www.w3.org/2000/svg" width="53" height="53" viewBox="0 0 53 53" fill="none">
    <path d="M17.7182 44.884C16.9564 44.884 16.2116 45.1099 15.5782 45.5332C14.9447 45.9565 14.451 46.5581 14.1594 47.2619C13.8679 47.9658 13.7916 48.7403 13.9402 49.4875C14.0889 50.2347 14.4557 50.9211 14.9944 51.4598C15.5331 51.9985 16.2195 52.3654 16.9667 52.514C17.7139 52.6626 18.4884 52.5864 19.1923 52.2948C19.8962 52.0033 20.4978 51.5096 20.921 50.8761C21.3443 50.2426 21.5702 49.4979 21.5702 48.736C21.5691 47.7147 21.163 46.7356 20.4408 46.0134C19.7186 45.2913 18.7395 44.8851 17.7182 44.884ZM17.7182 51.047C17.2611 51.047 16.8143 50.9115 16.4343 50.6576C16.0543 50.4036 15.758 50.0427 15.5831 49.6204C15.4082 49.1981 15.3624 48.7335 15.4516 48.2852C15.5408 47.8369 15.7609 47.4251 16.0841 47.1019C16.4073 46.7787 16.8191 46.5586 17.2674 46.4695C17.7157 46.3803 18.1803 46.426 18.6026 46.601C19.0249 46.7759 19.3858 47.0721 19.6397 47.4521C19.8937 47.8322 20.0292 48.279 20.0292 48.736C20.0284 49.3487 19.7847 49.9361 19.3515 50.3693C18.9182 50.8025 18.3309 51.0462 17.7182 51.047Z" fill="#ffffff"></path>
    <path d="M17.7113 49.1829C18.5016 49.1829 19.1423 48.8628 19.1423 48.4679C19.1423 48.073 18.5016 47.7529 17.7113 47.7529C16.921 47.7529 16.2803 48.073 16.2803 48.4679C16.2803 48.8628 16.921 49.1829 17.7113 49.1829Z" fill="#ffffff"></path>
    <path d="M44.1769 49.1829C44.5718 49.1829 44.8919 48.8628 44.8919 48.4679C44.8919 48.073 44.5718 47.7529 44.1769 47.7529C43.782 47.7529 43.4619 48.073 43.4619 48.4679C43.4619 48.8628 43.782 49.1829 44.1769 49.1829Z" fill="#ffffff"></path>
    <path d="M44.1137 44.884C43.3519 44.884 42.6071 45.1099 41.9737 45.5332C41.3402 45.9565 40.8465 46.5581 40.5549 47.2619C40.2634 47.9658 40.1871 48.7403 40.3357 49.4875C40.4844 50.2347 40.8513 50.9211 41.39 51.4598C41.9287 51.9985 42.615 52.3654 43.3623 52.514C44.1095 52.6626 44.884 52.5864 45.5878 52.2948C46.2917 52.0033 46.8933 51.5096 47.3165 50.8761C47.7398 50.2426 47.9657 49.4979 47.9657 48.736C47.9647 47.7147 47.5585 46.7356 46.8363 46.0134C46.1142 45.2913 45.135 44.8851 44.1137 44.884ZM44.1137 51.047C43.6566 51.047 43.2099 50.9115 42.8298 50.6576C42.4498 50.4036 42.1536 50.0427 41.9786 49.6204C41.8037 49.1981 41.758 48.7335 41.8471 48.2852C41.9363 47.8369 42.1564 47.4251 42.4796 47.1019C42.8028 46.7787 43.2146 46.5586 43.6629 46.4695C44.1112 46.3803 44.5758 46.426 44.9981 46.601C45.4204 46.7759 45.7813 47.0721 46.0353 47.4521C46.2892 47.8322 46.4247 48.279 46.4247 48.736C46.4239 49.3487 46.1802 49.9361 45.747 50.3693C45.3138 50.8025 44.7264 51.0462 44.1137 51.047Z" fill="#ffffff"></path>
    <path d="M12.72 37.279L18.327 34.1H30.916C31.8035 34.0989 32.6634 33.7918 33.3508 33.2306C34.0383 32.6693 34.5113 31.8883 34.69 31.019H42.713C43.9107 31.0195 45.0744 30.6211 46.0204 29.8866C46.9664 29.1521 47.6408 28.1234 47.937 26.963L52.563 8.87C52.5919 8.75629 52.5945 8.63749 52.5705 8.52263C52.5466 8.40778 52.4968 8.2999 52.4248 8.20722C52.3529 8.11454 52.2607 8.03951 52.1554 7.98783C52.0501 7.93615 51.9343 7.90919 51.817 7.909H14L13.6 6.373C13.1346 4.54965 12.075 2.93329 10.5887 1.77921C9.10229 0.625135 7.27381 -0.000892916 5.392 9.55905e-07H2.311C1.69808 9.55905e-07 1.11027 0.243481 0.676876 0.676877C0.24348 1.11027 0 1.69809 0 2.311C0 2.92392 0.24348 3.51173 0.676876 3.94512C1.11027 4.37852 1.69808 4.622 2.311 4.622H5.392C6.24801 4.62142 7.07977 4.90628 7.75569 5.43152C8.43162 5.95676 8.91311 6.69238 9.124 7.522L15.041 30.65L10.441 33.258C9.4041 33.8446 8.59068 34.7581 8.12777 35.8559C7.66486 36.9536 7.57852 38.1737 7.88225 39.3257C8.18598 40.4776 8.86266 41.4966 9.80662 42.2234C10.7506 42.9502 11.9087 43.3439 13.1 43.343H47.2C47.8129 43.343 48.4007 43.0995 48.8341 42.6661C49.2675 42.2327 49.511 41.6449 49.511 41.032C49.511 40.4191 49.2675 39.8313 48.8341 39.3979C48.4007 38.9645 47.8129 38.721 47.2 38.721H13.1C12.9294 38.7212 12.7635 38.6647 12.6284 38.5604C12.4934 38.4561 12.3968 38.3098 12.3539 38.1447C12.311 37.9795 12.3241 37.8048 12.3913 37.6479C12.4585 37.491 12.5758 37.3609 12.725 37.278L12.72 37.279ZM41.273 22.288H36.539L36.828 16.639H42.14L41.273 22.288ZM43.7 16.639H48.988L47.543 22.288H42.833L43.7 16.639ZM41.038 23.829L40.171 29.478H36.171L36.46 23.829H41.038ZM35 22.288H30.255L29.966 16.639H35.286L35 22.288ZM36.91 15.098L37.2 9.449H43.247L42.376 15.1L36.91 15.098ZM35.367 15.098H29.887L29.6 9.449H35.655L35.367 15.098ZM28.347 15.098H25.3C25.0956 15.098 24.8997 15.1792 24.7552 15.3237C24.6107 15.4682 24.5295 15.6642 24.5295 15.8685C24.5295 16.0728 24.6107 16.2688 24.7552 16.4133C24.8997 16.5578 25.0956 16.639 25.3 16.639H28.428L28.717 22.288H23.978L22.008 9.449H28.055L28.347 15.098ZM22.423 22.288H17.673L16.228 16.639H21.553L22.423 22.288ZM22.659 23.829L23.526 29.478H19.512L18.067 23.829H22.659ZM25.085 29.478L24.218 23.829H28.794L29.083 29.478H25.085ZM30.626 29.478L30.337 23.829H34.921L34.632 29.478H30.626ZM46.447 26.578C46.2358 27.4075 45.7542 28.1429 45.0784 28.6681C44.4025 29.1932 43.5709 29.4782 42.715 29.478H41.731L42.598 23.829H47.15L46.447 26.578ZM49.38 15.1H43.935L44.8 9.449H50.823L49.38 15.1ZM20.45 9.449L21.317 15.098H15.834L14.39 9.449H20.45ZM5.392 3.081H2.311C2.10665 3.081 1.91067 2.99982 1.76617 2.85533C1.62168 2.71083 1.5405 2.51485 1.5405 2.3105C1.5405 2.10615 1.62168 1.91017 1.76617 1.76568C1.91067 1.62118 2.10665 1.54 2.311 1.54H5.392C6.96497 1.53913 8.49138 2.07379 9.72 3.056L8.62 4.156C7.68762 3.45861 6.55434 3.08213 5.39 3.083L5.392 3.081ZM13.092 40.262H47.2C47.4044 40.262 47.6003 40.3432 47.7448 40.4877C47.8893 40.6322 47.9705 40.8282 47.9705 41.0325C47.9705 41.2369 47.8893 41.4328 47.7448 41.5773C47.6003 41.7218 47.4044 41.803 47.2 41.803H13.1C12.249 41.8039 11.4216 41.5229 10.7472 41.0039C10.0728 40.4849 9.58928 39.7571 9.37222 38.9342C9.15517 38.1114 9.21679 37.2398 9.54747 36.4556C9.87815 35.6715 10.4593 35.019 11.2 34.6L16.312 31.7C16.4591 31.6166 16.5746 31.4871 16.6408 31.3315C16.7069 31.1758 16.72 31.0028 16.678 30.839L10.616 7.139C10.4416 6.455 10.134 5.81208 9.711 5.247L10.811 4.147C11.4249 4.91432 11.8681 5.80378 12.111 6.756L18.169 30.441C18.2114 30.6066 18.3077 30.7535 18.4428 30.8583C18.5779 30.9631 18.744 31.02 18.915 31.02H33.095C32.9352 31.4703 32.64 31.8602 32.2499 32.1361C31.8598 32.412 31.3938 32.5604 30.916 32.561H18.124C17.9908 32.5609 17.8599 32.5954 17.744 32.661L11.961 35.94C11.5168 36.1915 11.1684 36.583 10.9702 37.0533C10.7719 37.5236 10.7349 38.0464 10.865 38.5399C10.9951 39.0335 11.2849 39.4701 11.6892 39.7816C12.0935 40.0932 12.5896 40.2621 13.1 40.262H13.092Z" fill="#ffffff"></path>
</svg>